<svg xmlns="http://www.w3.org/2000/svg" version="1.1" x="0" y="0" width="101.4" height="52.2" viewBox="0 0 101.4 52.2" enable-background="new 0 0 101.379 52.206" xml:space="preserve"><style>.style0{fill:	none;}.style1{fill:	#F7BC60;}.style2{fill:	#FFFFFF;}</style><pattern x="-21.7" y="770.2" width="69" height="69" patternUnits="userSpaceOnUse" viewBox="2.1 -70.9 69 69" overflow="visible"><polygon points="71.1" class="style0"/><polygon points="71.1" class="style1"/><path d="M61.8-71.7c0 0.1 0 0.10 0.2 -0.1 0.1-0.1 0.1-0.2 0.1 0 0.1-0.1 0.3-0.1 0.4 -0.2 0.10 0.20 0.4 0 0.10 0.10 0.2 0 0.1 0 0.3 0.1 0.4 0.1 0.2 0.3 0.4 0.4 0.5 0.2 0.1 0.4 0.6 0.6 0.6 0.2 0 0.4-0.1 0.5-0.1 0.20 0.4 0 0.6-0.1 0.2-0.1 0.1-0.3 0.3-0.4 0.1-0.1 0.30 0.4-0.1 0.2-0.1 0.3-0.3 0.4-0.5 0-0.1 0-0.1 0-0.2 0-0.1 0.1-0.2 0.1-0.3 0-0.1-0.1-0.1-0.1-0.2 0-0.1 0-0.2 0-0.3 0-0.2 0-0.4-0.1-0.5 -0.4-0.7-1.2-0.9-2-0.8 -0.2 0-0.3 0.1-0.4 0.2 -0.2 0.1-0.1 0.2-0.3 0.2 -0.1 0-0.2 0.1-0.2 0.2 0 0.1 0 0.1 0 0.2 0 00000M54.1-71.7c0 0.1 0 0.10 0.2 -0.1 0.1-0.1 0.1-0.2 0.1 0 0.1-0.1 0.3-0.1 0.4 -0.2 0.10 0.20 0.4 0 0.10 0.10 0.2 0 0.1 0 0.3 0.1 0.4 0.1 0.2 0.3 0.4 0.4 0.5 0.2 0.1 0.4 0.6 0.6 0.6 0.2 0 0.4-0.1 0.5-0.1 0.20 0.4 0 0.6-0.1 0.2-0.1 0.1-0.3 0.3-0.4 0.1-0.1 0.30 0.4-0.1 0.2-0.1 0.3-0.3 0.4-0.5 0-0.1 0-0.1 0-0.2 0-0.1 0.1-0.2 0.1-0.3 0-0.1-0.1-0.1-0.1-0.2 0-0.1 0-0.2 0-0.3 0-0.2 0-0.4-0.1-0.5 -0.4-0.7-1.2-0.9-2-0.8 -0.2 0-0.3 0.1-0.4 0.2 -0.2 0.1-0.1 0.2-0.3 0.2 -0.1 0-0.2 0.1-0.2 0.2 0 0.1 0 0.1 0 0.2 0 00000M46.4-71.7c0 0.1 0 0.10 0.2 -0.1 0.1-0.1 0.1-0.2 0.1 0 0.1-0.1 0.3-0.1 0.4 -0.2 0.10 0.20 0.4 0 0.10 0.10 0.2 0 0.1 0 0.3 0.1 0.4 0.1 0.2 0.3 0.4 0.4 0.5 0.2 0.1 0.4 0.6 0.6 0.6 0.2 0 0.4-0.1 0.5-0.1 0.20 0.4 0 0.6-0.1 0.2-0.1 0.1-0.3 0.3-0.4 0.1-0.1 0.30 0.4-0.1 0.2-0.1 0.3-0.3 0.4-0.5 0-0.1 0-0.1 0-0.2 0-0.1 0.1-0.2 0.1-0.3 0-0.1-0.1-0.1-0.1-0.2 0-0.1 0-0.2 0-0.3 0-0.2 0-0.4-0.1-0.5 -0.4-0.7-1.2-0.9-2-0.8 -0.2 0-0.3 0.1-0.4 0.2 -0.2 0.1-0.1 0.2-0.3 0.2 -0.1 0-0.2 0.1-0.2 0.2 0 0.1 0 0.1 0 0.2 0 00000M38.8-71.7c0 0.1 0 0.10 0.2 -0.1 0.1-0.1 0.1-0.2 0.1 0 0.1-0.1 0.3-0.1 0.4 -0.2 0.10 0.20 0.4 0 0.10 0.10 0.2 0 0.1 0 0.3 0.1 0.4 0.1 0.2 0.3 0.4 0.4 0.5 0.2 0.1 0.4 0.6 0.6 0.6 0.2 0 0.4-0.1 0.5-0.1 0.20 0.4 0 0.6-0.1 0.2-0.1 0.1-0.3 0.3-0.4 0.1-0.1 0.30 0.4-0.1 0.2-0.1 0.3-0.3 0.4-0.5 0-0.1 0-0.1 0-0.2 0-0.1 0.1-0.2 0.1-0.3 0-0.1-0.1-0.1-0.1-0.2 0-0.1 0-0.2 0-0.3 0-0.2 0-0.4-0.1-0.5 -0.4-0.7-1.2-0.9-2-0.8 -0.2 0-0.3 0.1-0.4 0.2 -0.2 0.1-0.1 0.2-0.3 0.2 -0.1 0-0.2 0.1-0.2 0.2 0 0.1 0 0.1 0 0.2 0 00000M31.1-71.7c0 0.1 0 0.10 0.2 -0.1 0.1-0.1 0.1-0.2 0.1 0 0.1-0.1 0.3-0.1 0.4 -0.2 0.10 0.20 0.4 0 0.10 0.10 0.2 0 0.1 0 0.3 0.1 0.4 0.1 0.2 0.3 0.4 0.4 0.5 0.2 0.1 0.4 0.6 0.6 0.6 0.2 0 0.4-0.1 0.5-0.1 0.20 0.4 0 0.6-0.1 0.2-0.1 0.1-0.3 0.3-0.4 0.1-0.1 0.30 0.4-0.1 0.2-0.1 0.3-0.3 0.4-0.5 0-0.1 0-0.1 0-0.2 0-0.1 0.1-0.2 0.1-0.3 0-0.1-0.1-0.1-0.1-0.2 0-0.1 0-0.2 0-0.3 0-0.2 0-0.4-0.1-0.5 -0.4-0.7-1.2-0.9-2-0.8 -0.2 0-0.3 0.1-0.4 0.2 -0.2 0.1-0.1 0.2-0.3 0.2 -0.1 0-0.2 0.1-0.2 0.2 0 0.1 0 0.1 0 0.2 0 00000M23.4-71.7c0 0.1 0 0.10 0.2 -0.1 0.1-0.1 0.1-0.2 0.1 0 0.1-0.1 0.3-0.1 0.4 -0.2 0.10 0.20 0.4 0 0.10 0.10 0.2 0 0.1 0 0.3 0.1 0.4 0.1 0.2 0.3 0.4 0.4 0.5 0.2 0.1 0.4 0.6 0.6 0.6 0.2 0 0.4-0.1 0.5-0.1 0.20 0.4 0 0.6-0.1 0.2-0.1 0.1-0.3 0.3-0.4 0.1-0.1 0.30 0.4-0.1 0.2-0.1 0.3-0.3 0.4-0.5 0-0.1 0-0.1 0-0.2 0-0.1 0.1-0.2 0.1-0.3 0-0.1-0.1-0.1-0.1-0.2 0-0.1 0-0.2 0-0.3 0-0.2 0-0.4-0.1-0.5 -0.4-0.7-1.2-0.9-2-0.8 -0.2 0-0.3 0.1-0.4 0.2 -0.2 0.1-0.1 0.2-0.3 0.2 -0.1 0-0.2 0.1-0.2 0.2 0 0.1 0 0.1 0 0.2 0 00000M15.8-71.7c0 0.1 0 0.10 0.2 -0.1 0.1-0.1 0.1-0.2 0.1 0 0.1-0.1 0.3-0.1 0.4 -0.2 0.10 0.20 0.4 0 0.10 0.10 0.2 0 0.1 0 0.3 0.1 0.4 0.1 0.2 0.3 0.4 0.4 0.5 0.2 0.1 0.4 0.6 0.6 0.6 0.2 0 0.4-0.1 0.5-0.1 0.20 0.4 0 0.6-0.1 0.2-0.1 0.1-0.3 0.3-0.4 0.1-0.1 0.30 0.4-0.1 0.2-0.1 0.3-0.3 0.4-0.5 0-0.1 0-0.1 0-0.2 0-0.1 0.1-0.2 0.1-0.3 0-0.1-0.1-0.1-0.1-0.2 0-0.1 0-0.2 0-0.3 0-0.2 0-0.4-0.1-0.5 -0.4-0.7-1.2-0.9-2-0.8 -0.2 0-0.3 0.1-0.4 0.2 -0.2 0.1-0.1 0.2-0.3 0.2 -0.1 0-0.2 0.1-0.2 0.2 0 0.1 0 0.1 0 0.2 0 00000M8.1-71.7c0 0.1 0 0.10 0.2 -0.1 0.1-0.1 0.1-0.2 0.1 0 0.1-0.1 0.3-0.1 0.4 -0.2 0.10 0.20 0.4 0 0.10 0.10 0.2 0 0.1 0 0.3 0.1 0.4 0.1 0.2 0.3 0.4 0.4 0.5 0.2 0.1 0.4 0.6 0.6 0.6 0.2 0 0.4-0.1 0.5-0.1 0.20 0.4 0 0.6-0.1 0.2-0.1 0.1-0.3 0.3-0.4 0.1-0.1 0.30 0.4-0.1 0.2-0.1 0.3-0.3 0.4-0.5 0-0.1 0-0.1 0-0.2 0-0.1 0.1-0.2 0.1-0.3 0-0.1-0.1-0.1-0.1-0.2 0-0.1 0-0.2 0-0.3 0-0.2 0-0.4-0.1-0.5 -0.4-0.7-1.2-0.9-2-0.8 -0.2 0-0.3 0.1-0.4 0.2 -0.2 0.1-0.1 0.2-0.3 0.2 -0.1 0-0.2 0.1-0.2 0.2 0 0.1 0 0.1 0 0.2 0 00000M0.4-71.7c0 0.1 0 0.10 0.2C0.4-71.4 0.3-71.4 0.2-71.3c-0.1 0.1-0.1 0.3-0.1 0.4 -0.2 0.10 0.20 0.4 0 0.10 0.10 0.2 0 0.1 0 0.3 0.1 0.4 0.1 0.2 0.3 0.4 0.4 0.5 0.2 0.1 0.4 0.6 0.6 0.6 0.2 0 0.4-0.1 0.5-0.1 0.20 0.4 0 0.6-0.1 0.2-0.1 0.1-0.3 0.3-0.4 0.1-0.1 0.30 0.4-0.1 0.2-0.1 0.3-0.3 0.4-0.5 0-0.1 0-0.1 0-0.2 0-0.1 0.1-0.2 0.1-0.3 0-0.1-0.1-0.1-0.1-0.2 0-0.1 0-0.2 0-0.3 0-0.2 0-0.4-0.1-0.5 -0.4-0.7-1.2-0.9-2-0.8 -0.2 0-0.3 0.1-0.4 0.2 -0.2 0.1-0.1 0.2-0.3 0.2 -0.1 0-0.2 0.1-0.2 0.2 0 0.1 0 0.1 0 0.2 0 00000" class="style2"/><path d="M69.4-71.7c0 0.1 0 0.10 0.2 -0.1 0.1-0.1 0.1-0.2 0.1 -0.1 0.1-0.1 0.3-0.1 0.4 -0.2 0.10 0.20 0.4 0 0.10 0.10 0.2 0 0.1 0 0.3 0.1 0.4 0.1 0.2 0.3 0.4 0.4 0.5 0.2 0.1 0.4 0.6 0.6 0.6 0.2 0 0.4-0.1 0.5-0.1 0.20 0.4 0 0.6-0.1 0.2-0.1 0.1-0.3 0.3-0.4 0.1-0.1 0.30 0.4-0.1 0.2-0.1 0.3-0.3 0.4-0.5 0-0.1 0-0.1 0-0.2 0-0.1 0.1-0.2 0.1-0.3 0-0.1-0.1-0.1-0.1-0.2 0-0.1 0-0.2 0-0.3 0-0.2 0-0.4-0.1-0.5 -0.4-0.7-1.2-0.9-2-0.8 -0.2 0-0.3 0.1-0.4 0.2 -0.2 0.1-0.1 0.2-0.3 0.2 -0.1 0-0.2 0.1-0.2 0.2 0 0.1 0 0.1 0 0.2 0 00000" class="style2"/><path d="M0.5-71.7c0 0.1 0 0.10 0.2 -0.1 0.1-0.1 0.1-0.2 0.1 -0.1 0.1-0.1 0.3-0.1 0.4 -0.2 0.10 0.20 0.4 0 0.10 0.10 0.2 0 0.1 0 0.3 0.1 0.4 0.1 0.2 0.3 0.4 0.4 0.5 0.2 0.1 0.4 0.6 0.6 0.6 0.2 0 0.4-0.1 0.5-0.1 0.20 0.4 0 0.6-0.1 0.2-0.1 0.1-0.3 0.3-0.4 0.1-0.1 0.30 0.4-0.1 0.2-0.1 0.3-0.3 0.4-0.5 0-0.1 0-0.1 0-0.2 0-0.1 0.1-0.2 0.1-0.3 0-0.1-0.1-0.1-0.1-0.2 0-0.1 0-0.2 0-0.3 0-0.2 0-0.4-0.1-0.5 -0.4-0.7-1.2-0.9-2-0.8 -0.2 0-0.3 0.1-0.4 0.2 -0.2 0.1-0.1 0.2-0.3 0.2 -0.1 0-0.2 0.1-0.2 0.2C0.5-71.7 0.5-71.7 0.5-71.6c0 00000" class="style2"/><path d="M69.4-64c0 0.1 0 0.10 0.2 -0.1 0.1-0.1 0.1-0.2 0.1 0 0.1-0.1 0.3-0.1 0.4 -0.2 0.10 0.20 0.4 0 0.10 0.10 0.2 0 0.1 0 0.3 0.1 0.4 0.1 0.2 0.3 0.4 0.4 0.5 0.2 0.1 0.4 0.6 0.6 0.6 0.2 0 0.4-0.1 0.5-0.1 0.20 0.4 0 0.6-0.1 0.2-0.1 0.1-0.3 0.3-0.4 0.1-0.1 0.30 0.4-0.1 0.2-0.1 0.3-0.3 0.4-0.5 0-0.1 0-0.1 0-0.2 0-0.1 0.1-0.2 0.1-0.3 0-0.1-0.1-0.1-0.1-0.2 0-0.1 0-0.2 0-0.3 0-0.2 0-0.4-0.1-0.5 -0.4-0.7-1.2-0.9-2-0.8 -0.2 0-0.3 0.1-0.4 0.2 -0.2 0.1-0.1 0.2-0.3 0.2 -0.1 0-0.2 0.1-0.2 0.2 0 0.1 0 0.1 0 0.2 0 00000M61.8-64c0 0.1 0 0.10 0.2 -0.1 0.1-0.1 0.1-0.2 0.1 0 0.1-0.1 0.3-0.1 0.4 -0.2 0.10 0.20 0.4 0 0.10 0.10 0.2 0 0.1 0 0.3 0.1 0.4 0.1 0.2 0.3 0.4 0.4 0.5 0.2 0.1 0.4 0.6 0.6 0.6 0.2 0 0.4-0.1 0.5-0.1 0.20 0.4 0 0.6-0.1 0.2-0.1 0.1-0.3 0.3-0.4 0.1-0.1 0.30 0.4-0.1 0.2-0.1 0.3-0.3 0.4-0.5 0-0.1 0-0.1 0-0.2 0-0.1 0.1-0.2 0.1-0.3 0-0.1-0.1-0.1-0.1-0.2 0-0.1 0-0.2 0-0.3 0-0.2 0-0.4-0.1-0.5 -0.4-0.7-1.2-0.9-2-0.8 -0.2 0-0.3 0.1-0.4 0.2 -0.2 0.1-0.1 0.2-0.3 0.2 -0.1 0-0.2 0.1-0.2 0.2 0 0.1 0 0.1 0 0.2 0 00000M54.1-64c0 0.1 0 0.10 0.2 -0.1 0.1-0.1 0.1-0.2 0.1 0 0.1-0.1 0.3-0.1 0.4 -0.2 0.10 0.20 0.4 0 0.10 0.10 0.2 0 0.1 0 0.3 0.1 0.4 0.1 0.2 0.3 0.4 0.4 0.5 0.2 0.1 0.4 0.6 0.6 0.6 0.2 0 0.4-0.1 0.5-0.1 0.20 0.4 0 0.6-0.1 0.2-0.1 0.1-0.3 0.3-0.4 0.1-0.1 0.30 0.4-0.1 0.2-0.1 0.3-0.3 0.4-0.5 0-0.1 0-0.1 0-0.2 0-0.1 0.1-0.2 0.1-0.3 0-0.1-0.1-0.1-0.1-0.2 0-0.1 0-0.2 0-0.3 0-0.2 0-0.4-0.1-0.5 -0.4-0.7-1.2-0.9-2-0.8 -0.2 0-0.3 0.1-0.4 0.2 -0.2 0.1-0.1 0.2-0.3 0.2 -0.1 0-0.2 0.1-0.2 0.2 0 0.1 0 0.1 0 0.2 0 00000M46.5-64c0 0.1 0 0.10 0.2 -0.1 0.1-0.1 0.1-0.2 0.1 0 0.1-0.1 0.3-0.1 0.4 -0.2 0.10 0.20 0.4 0 0.10 0.10 0.2 0 0.1 0 0.3 0.1 0.4 0.1 0.2 0.3 0.4 0.4 0.5 0.2 0.1 0.4 0.6 0.6 0.6 0.2 0 0.4-0.1 0.5-0.1 0.20 0.4 0 0.6-0.1 0.2-0.1 0.1-0.3 0.3-0.4 0.1-0.1 0.30 0.4-0.1 0.2-0.1 0.3-0.3 0.4-0.5 0-0.1 0-0.1 0-0.2 0-0.1 0.1-0.2 0.1-0.3 0-0.1-0.1-0.1-0.1-0.2 0-0.1 0-0.2 0-0.3 0-0.2 0-0.4-0.1-0.5 -0.4-0.7-1.2-0.9-2-0.8 -0.2 0-0.3 0.1-0.4 0.2 -0.2 0.1-0.1 0.2-0.3 0.2 -0.1 0-0.2 0.1-0.2 0.2 0 0.1 0 0.1 0 0.2 0 00000M38.8-64c0 0.1 0 0.10 0.2 -0.1 0.1-0.1 0.1-0.2 0.1 0 0.1-0.1 0.3-0.1 0.4 -0.2 0.10 0.20 0.4 0 0.10 0.10 0.2 0 0.1 0 0.3 0.1 0.4 0.1 0.2 0.3 0.4 0.4 0.5 0.2 0.1 0.4 0.6 0.6 0.6 0.2 0 0.4-0.1 0.5-0.1 0.20 0.4 0 0.6-0.1 0.2-0.1 0.1-0.3 0.3-0.4 0.1-0.1 0.30 0.4-0.1 0.2-0.1 0.3-0.3 0.4-0.5 0-0.1 0-0.1 0-0.2 0-0.1 0.1-0.2 0.1-0.3 0-0.1-0.1-0.1-0.1-0.2 0-0.1 0-0.2 0-0.3 0-0.2 0-0.4-0.1-0.5 -0.4-0.7-1.2-0.9-2-0.8 -0.2 0-0.3 0.1-0.4 0.2 -0.2 0.1-0.1 0.2-0.3 0.2 -0.1 0-0.2 0.1-0.2 0.2 0 0.1 0 0.1 0 0.2 0 00000M31.1-64c0 0.1 0 0.10 0.2 -0.1 0.1-0.1 0.1-0.2 0.1 0 0.1-0.1 0.3-0.1 0.4 -0.2 0.10 0.20 0.4 0 0.10 0.10 0.2 0 0.1 0 0.3 0.1 0.4 0.1 0.2 0.3 0.4 0.4 0.5 0.2 0.1 0.4 0.6 0.6 0.6 0.2 0 0.4-0.1 0.5-0.1 0.20 0.4 0 0.6-0.1 0.2-0.1 0.1-0.3 0.3-0.4 0.1-0.1 0.30 0.4-0.1 0.2-0.1 0.3-0.3 0.4-0.5 0-0.1 0-0.1 0-0.2 0-0.1 0.1-0.2 0.1-0.3 0-0.1-0.1-0.1-0.1-0.2 0-0.1 0-0.2 0-0.3 0-0.2 0-0.4-0.1-0.5 -0.4-0.7-1.2-0.9-2-0.8 -0.2 0-0.3 0.1-0.4 0.2 -0.2 0.1-0.1 0.2-0.3 0.2 -0.1 0-0.2 0.1-0.2 0.2 0 0.1 0 0.1 0 0.2 0 00000M23.5-64c0 0.1 0 0.10 0.2 -0.1 0.1-0.1 0.1-0.2 0.1 0 0.1-0.1 0.3-0.1 0.4 -0.2 0.10 0.20 0.4 0 0.10 0.10 0.2 0 0.1 0 0.3 0.1 0.4 0.1 0.2 0.3 0.4 0.4 0.5 0.2 0.1 0.4 0.6 0.6 0.6 0.2 0 0.4-0.1 0.5-0.1 0.20 0.4 0 0.6-0.1 0.2-0.1 0.1-0.3 0.3-0.4 0.1-0.1 0.30 0.4-0.1 0.2-0.1 0.3-0.3 0.4-0.5 0-0.1 0-0.1 0-0.2 0-0.1 0.1-0.2 0.1-0.3 0-0.1-0.1-0.1-0.1-0.2 0-0.1 0-0.2 0-0.3 0-0.2 0-0.4-0.1-0.5 -0.4-0.7-1.2-0.9-2-0.8 -0.2 0-0.3 0.1-0.4 0.2 -0.2 0.1-0.1 0.2-0.3 0.2 -0.1 0-0.2 0.1-0.2 0.2 0 0.1 0 0.1 0 0.2 0 00000M15.8-64c0 0.1 0 0.10 0.2 -0.1 0.1-0.1 0.1-0.2 0.1 0 0.1-0.1 0.3-0.1 0.4 -0.2 0.10 0.20 0.4 0 0.10 0.10 0.2 0 0.1 0 0.3 0.1 0.4 0.1 0.2 0.3 0.4 0.4 0.5 0.2 0.1 0.4 0.6 0.6 0.6 0.2 0 0.4-0.1 0.5-0.1 0.20 0.4 0 0.6-0.1 0.2-0.1 0.1-0.3 0.3-0.4 0.1-0.1 0.30 0.4-0.1 0.2-0.1 0.3-0.3 0.4-0.5 0-0.1 0-0.1 0-0.2 0-0.1 0.1-0.2 0.1-0.3 0-0.1-0.1-0.1-0.1-0.2 0-0.1 0-0.2 0-0.3 0-0.2 0-0.4-0.1-0.5 -0.4-0.7-1.2-0.9-2-0.8 -0.2 0-0.3 0.1-0.4 0.2 -0.2 0.1-0.1 0.2-0.3 0.2 -0.1 0-0.2 0.1-0.2 0.2 0 0.1 0 0.1 0 0.2 0 00000M8.2-64c0 0.1 0 0.10 0.2 -0.1 0.1-0.1 0.1-0.2 0.1 0 0.1-0.1 0.3-0.1 0.4 -0.2 0.10 0.20 0.4 0 0.10 0.10 0.2 0 0.1 0 0.3 0.1 0.4 0.1 0.2 0.3 0.4 0.4 0.5 0.2 0.1 0.4 0.6 0.6 0.6 0.2 0 0.4-0.1 0.5-0.1 0.20 0.4 0 0.6-0.1 0.2-0.1 0.1-0.3 0.3-0.4 0.1-0.1 0.30 0.4-0.1 0.2-0.1 0.3-0.3 0.4-0.5 0-0.1 0-0.1 0-0.2 0-0.1 0.1-0.2 0.1-0.3 0-0.1-0.1-0.1-0.1-0.2 0-0.1 0-0.2 0-0.3 0-0.2 0-0.4-0.1-0.5 -0.4-0.7-1.2-0.9-2-0.8 -0.2 0-0.3 0.1-0.4 0.2 -0.2 0.1-0.1 0.2-0.3 0.2 -0.1 0-0.2 0.1-0.2 0.2 0 0.1 0 0.1 0 0.2 0 00000M0.5-64c0 0.1 0 0.10 0.2 -0.1 0.1-0.1 0.1-0.2 0.1 0 0.1-0.1 0.3-0.1 0.4 -0.2 0.10 0.20 0.4 0 0.10 0.10 0.2 0 0.1 0 0.3 0.1 0.4 0.1 0.2 0.3 0.4 0.4 0.5 0.2 0.1 0.4 0.6 0.6 0.6 0.2 0 0.4-0.1 0.5-0.1C2-61.4 2.2-61.4 2.4-61.5c0.2-0.1 0.1-0.3 0.3-0.4 0.1-0.1 0.30 0.4-0.1 0.2-0.1 0.3-0.3 0.4-0.5 0-0.1 0-0.1 0-0.2 0-0.1 0.1-0.2 0.1-0.3 0-0.1-0.1-0.1-0.1-0.2 0-0.1 0-0.2 0-0.3 0-0.2 0-0.4-0.1-0.5 -0.4-0.7-1.2-0.9-2-0.8 -0.2 0-0.3 0.1-0.4 0.2 -0.2 0.1-0.1 0.2-0.3 0.2 -0.1 0-0.2 0.1-0.2 0.2 0 0.1 0 0.1 0 0.2 0 00000" class="style2"/><path d="M69.4-56.3c0 0.1 0 0.10 0.2 -0.1 0.1-0.1 0.1-0.2 0.1 0 0.1-0.1 0.3-0.1 0.4 -0.2 0.10 0.20 0.4 0 0.10 0.10 0.2 0 0.1 0 0.3 0.1 0.4 0.1 0.2 0.3 0.4 0.4 0.5 0.2 0.1 0.4 0.6 0.6 0.6 0.2 0 0.4-0.1 0.5-0.1 0.20 0.4 0 0.6-0.1 0.2-0.1 0.1-0.3 0.3-0.4 0.1-0.1 0.30 0.4-0.1 0.2-0.1 0.3-0.3 0.4-0.5 0-0.1 0-0.1 0-0.2 0-0.1 0.1-0.2 0.1-0.3 0-0.1-0.1-0.1-0.1-0.2 0-0.1 0-0.2 0-0.3 0-0.2 0-0.4-0.1-0.5 -0.4-0.7-1.2-0.9-2-0.8 -0.2 0-0.3 0.1-0.4 0.2 -0.2 0.1-0.1 0.2-0.3 0.2 -0.1 0-0.2 0.1-0.2 0.2 0 0.1 0 0.1 0 0.2 0 00000M61.8-56.3c0 0.1 0 0.10 0.2 -0.1 0.1-0.1 0.1-0.2 0.1 0 0.1-0.1 0.3-0.1 0.4 -0.2 0.10 0.20 0.4 0 0.10 0.10 0.2 0 0.1 0 0.3 0.1 0.4 0.1 0.2 0.3 0.4 0.4 0.5 0.2 0.1 0.4 0.6 0.6 0.6 0.2 0 0.4-0.1 0.5-0.1 0.20 0.4 0 0.6-0.1 0.2-0.1 0.1-0.3 0.3-0.4 0.1-0.1 0.30 0.4-0.1 0.2-0.1 0.3-0.3 0.4-0.5 0-0.1 0-0.1 0-0.2 0-0.1 0.1-0.2 0.1-0.3 0-0.1-0.1-0.1-0.1-0.2 0-0.1 0-0.2 0-0.3 0-0.2 0-0.4-0.1-0.5 -0.4-0.7-1.2-0.9-2-0.8 -0.2 0-0.3 0.1-0.4 0.2 -0.2 0.1-0.1 0.2-0.3 0.2 -0.1 0-0.2 0.1-0.2 0.2 0 0.1 0 0.1 0 0.2 0 00000M54.1-56.3c0 0.1 0 0.10 0.2 -0.1 0.1-0.1 0.1-0.2 0.1 0 0.1-0.1 0.3-0.1 0.4 -0.2 0.10 0.20 0.4 0 0.10 0.10 0.2 0 0.1 0 0.3 0.1 0.4 0.1 0.2 0.3 0.4 0.4 0.5 0.2 0.1 0.4 0.6 0.6 0.6 0.2 0 0.4-0.1 0.5-0.1 0.20 0.4 0 0.6-0.1 0.2-0.1 0.1-0.3 0.3-0.4 0.1-0.1 0.30 0.4-0.1 0.2-0.1 0.3-0.3 0.4-0.5 0-0.1 0-0.1 0-0.2 0-0.1 0.1-0.2 0.1-0.3 0-0.1-0.1-0.1-0.1-0.2 0-0.1 0-0.2 0-0.3 0-0.2 0-0.4-0.1-0.5 -0.4-0.7-1.2-0.9-2-0.8 -0.2 0-0.3 0.1-0.4 0.2 -0.2 0.1-0.1 0.2-0.3 0.2 -0.1 0-0.2 0.1-0.2 0.2 0 0.1 0 0.1 0 0.2 0 00000M46.5-56.3c0 0.1 0 0.10 0.2 -0.1 0.1-0.1 0.1-0.2 0.1 0 0.1-0.1 0.3-0.1 0.4 -0.2 0.10 0.20 0.4 0 0.10 0.10 0.2 0 0.1 0 0.3 0.1 0.4 0.1 0.2 0.3 0.4 0.4 0.5 0.2 0.1 0.4 0.6 0.6 0.6 0.2 0 0.4-0.1 0.5-0.1 0.20 0.4 0 0.6-0.1 0.2-0.1 0.1-0.3 0.3-0.4 0.1-0.1 0.30 0.4-0.1 0.2-0.1 0.3-0.3 0.4-0.5 0-0.1 0-0.1 0-0.2 0-0.1 0.1-0.2 0.1-0.3 0-0.1-0.1-0.1-0.1-0.2 0-0.1 0-0.2 0-0.3 0-0.2 0-0.4-0.1-0.5 -0.4-0.7-1.2-0.9-2-0.8 -0.2 0-0.3 0.1-0.4 0.2 -0.2 0.1-0.1 0.2-0.3 0.2 -0.1 0-0.2 0.1-0.2 0.2 0 0.1 0 0.1 0 0.2 0 00000M38.8-56.3c0 0.1 0 0.10 0.2 -0.1 0.1-0.1 0.1-0.2 0.1 0 0.1-0.1 0.3-0.1 0.4 -0.2 0.10 0.20 0.4 0 0.10 0.10 0.2 0 0.1 0 0.3 0.1 0.4 0.1 0.2 0.3 0.4 0.4 0.5 0.2 0.1 0.4 0.6 0.6 0.6 0.2 0 0.4-0.1 0.5-0.1 0.20 0.4 0 0.6-0.1 0.2-0.1 0.1-0.3 0.3-0.4 0.1-0.1 0.30 0.4-0.1 0.2-0.1 0.3-0.3 0.4-0.5 0-0.1 0-0.1 0-0.2 0-0.1 0.1-0.2 0.1-0.3 0-0.1-0.1-0.1-0.1-0.2 0-0.1 0-0.2 0-0.3 0-0.2 0-0.4-0.1-0.5 -0.4-0.7-1.2-0.9-2-0.8 -0.2 0-0.3 0.1-0.4 0.2 -0.2 0.1-0.1 0.2-0.3 0.2 -0.1 0-0.2 0.1-0.2 0.2 0 0.1 0 0.1 0 0.2 0 00000M31.1-56.3c0 0.1 0 0.10 0.2 -0.1 0.1-0.1 0.1-0.2 0.1 0 0.1-0.1 0.3-0.1 0.4 -0.2 0.10 0.20 0.4 0 0.10 0.10 0.2 0 0.1 0 0.3 0.1 0.4 0.1 0.2 0.3 0.4 0.4 0.5 0.2 0.1 0.4 0.6 0.6 0.6 0.2 0 0.4-0.1 0.5-0.1 0.20 0.4 0 0.6-0.1 0.2-0.1 0.1-0.3 0.3-0.4 0.1-0.1 0.30 0.4-0.1 0.2-0.1 0.3-0.3 0.4-0.5 0-0.1 0-0.1 0-0.2 0-0.1 0.1-0.2 0.1-0.3 0-0.1-0.1-0.1-0.1-0.2 0-0.1 0-0.2 0-0.3 0-0.2 0-0.4-0.1-0.5 -0.4-0.7-1.2-0.9-2-0.8 -0.2 0-0.3 0.1-0.4 0.2 -0.2 0.1-0.1 0.2-0.3 0.2 -0.1 0-0.2 0.1-0.2 0.2 0 0.1 0 0.1 0 0.2 0 00000M23.5-56.3c0 0.1 0 0.10 0.2 -0.1 0.1-0.1 0.1-0.2 0.1 0 0.1-0.1 0.3-0.1 0.4 -0.2 0.10 0.20 0.4 0 0.10 0.10 0.2 0 0.1 0 0.3 0.1 0.4 0.1 0.2 0.3 0.4 0.4 0.5 0.2 0.1 0.4 0.6 0.6 0.6 0.2 0 0.4-0.1 0.5-0.1 0.20 0.4 0 0.6-0.1 0.2-0.1 0.1-0.3 0.3-0.4 0.1-0.1 0.30 0.4-0.1 0.2-0.1 0.3-0.3 0.4-0.5 0-0.1 0-0.1 0-0.2 0-0.1 0.1-0.2 0.1-0.3 0-0.1-0.1-0.1-0.1-0.2 0-0.1 0-0.2 0-0.3 0-0.2 0-0.4-0.1-0.5 -0.4-0.7-1.2-0.9-2-0.8 -0.2 0-0.3 0.1-0.4 0.2 -0.2 0.1-0.1 0.2-0.3 0.2 -0.1 0-0.2 0.1-0.2 0.2 0 0.1 0 0.1 0 0.2 0 00000M15.8-56.3c0 0.1 0 0.10 0.2 -0.1 0.1-0.1 0.1-0.2 0.1 0 0.1-0.1 0.3-0.1 0.4 -0.2 0.10 0.20 0.4 0 0.10 0.10 0.2 0 0.1 0 0.3 0.1 0.4 0.1 0.2 0.3 0.4 0.4 0.5 0.2 0.1 0.4 0.6 0.6 0.6 0.2 0 0.4-0.1 0.5-0.1 0.20 0.4 0 0.6-0.1 0.2-0.1 0.1-0.3 0.3-0.4 0.1-0.1 0.30 0.4-0.1 0.2-0.1 0.3-0.3 0.4-0.5 0-0.1 0-0.1 0-0.2 0-0.1 0.1-0.2 0.1-0.3 0-0.1-0.1-0.1-0.1-0.2 0-0.1 0-0.2 0-0.3 0-0.2 0-0.4-0.1-0.5 -0.4-0.7-1.2-0.9-2-0.8 -0.2 0-0.3 0.1-0.4 0.2 -0.2 0.1-0.1 0.2-0.3 0.2 -0.1 0-0.2 0.1-0.2 0.2 0 0.1 0 0.1 0 0.2 0 00000M8.2-56.3c0 0.1 0 0.10 0.2 -0.1 0.1-0.1 0.1-0.2 0.1 0 0.1-0.1 0.3-0.1 0.4 -0.2 0.10 0.20 0.4 0 0.10 0.10 0.2 0 0.1 0 0.3 0.1 0.4 0.1 0.2 0.3 0.4 0.4 0.5 0.2 0.1 0.4 0.6 0.6 0.6 0.2 0 0.4-0.1 0.5-0.1 0.20 0.4 0 0.6-0.1 0.2-0.1 0.1-0.3 0.3-0.4 0.1-0.1 0.30 0.4-0.1 0.2-0.1 0.3-0.3 0.4-0.5 0-0.1 0-0.1 0-0.2 0-0.1 0.1-0.2 0.1-0.3 0-0.1-0.1-0.1-0.1-0.2 0-0.1 0-0.2 0-0.3 0-0.2 0-0.4-0.1-0.5 -0.4-0.7-1.2-0.9-2-0.8 -0.2 0-0.3 0.1-0.4 0.2 -0.2 0.1-0.1 0.2-0.3 0.2 -0.1 0-0.2 0.1-0.2 0.2 0 0.1 0 0.1 0 0.2 0 00000M0.5-56.3c0 0.1 0 0.10 0.2 -0.1 0.1-0.1 0.1-0.2 0.1 0 0.1-0.1 0.3-0.1 0.4 -0.2 0.10 0.20 0.4 0 0.10 0.10 0.2 0 0.1 0 0.3 0.1 0.4 0.1 0.2 0.3 0.4 0.4 0.5 0.2 0.1 0.4 0.6 0.6 0.6 0.2 0 0.4-0.1 0.5-0.1 0.20 0.4 0 0.6-0.1 0.2-0.1 0.1-0.3 0.3-0.4 0.1-0.1 0.30 0.4-0.1 0.2-0.1 0.3-0.3 0.4-0.5 0-0.1 0-0.1 0-0.2 0-0.1 0.1-0.2 0.1-0.3 0-0.1-0.1-0.1-0.1-0.2 0-0.1 0-0.2 0-0.3 0-0.2 0-0.4-0.1-0.5 -0.4-0.7-1.2-0.9-2-0.8 -0.2 0-0.3 0.1-0.4 0.2 -0.2 0.1-0.1 0.2-0.3 0.2 -0.1 0-0.2 0.1-0.2 0.2C0.5-56.4 0.5-56.4 0.5-56.3c0 00000" class="style2"/><path d="M69.4-48.7c0 0.1 0 0.10 0.2 -0.1 0.1-0.1 0.1-0.2 0.1 0 0.1-0.1 0.3-0.1 0.4 -0.2 0.10 0.20 0.4 0 0.10 0.10 0.2 0 0.1 0 0.3 0.1 0.4 0.1 0.2 0.3 0.4 0.4 0.5 0.2 0.1 0.4 0.6 0.6 0.6 0.2 0 0.4-0.1 0.5-0.1 0.20 0.4 0 0.6-0.1 0.2-0.1 0.1-0.3 0.3-0.4 0.1-0.1 0.30 0.4-0.1 0.2-0.1 0.3-0.3 0.4-0.5 0-0.1 0-0.1 0-0.2 0-0.1 0.1-0.2 0.1-0.3 0-0.1-0.1-0.1-0.1-0.2 0-0.1 0-0.2 0-0.3 0-0.2 0-0.4-0.1-0.5 -0.4-0.7-1.2-0.9-2-0.8 -0.2 0-0.3 0.1-0.4 0.2 -0.2 0.1-0.1 0.2-0.3 0.2 -0.1 0-0.2 0.1-0.2 0.2 0 0.1 0 0.1 0 0.2 0 00000M61.8-48.7c0 0.1 0 0.10 0.2 -0.1 0.1-0.1 0.1-0.2 0.1 0 0.1-0.1 0.3-0.1 0.4 -0.2 0.10 0.20 0.4 0 0.10 0.10 0.2 0 0.1 0 0.3 0.1 0.4 0.1 0.2 0.3 0.4 0.4 0.5 0.2 0.1 0.4 0.6 0.6 0.6 0.2 0 0.4-0.1 0.5-0.1 0.20 0.4 0 0.6-0.1 0.2-0.1 0.1-0.3 0.3-0.4 0.1-0.1 0.30 0.4-0.1 0.2-0.1 0.3-0.3 0.4-0.5 0-0.1 0-0.1 0-0.2 0-0.1 0.1-0.2 0.1-0.3 0-0.1-0.1-0.1-0.1-0.2 0-0.1 0-0.2 0-0.3 0-0.2 0-0.4-0.1-0.5 -0.4-0.7-1.2-0.9-2-0.8 -0.2 0-0.3 0.1-0.4 0.2 -0.2 0.1-0.1 0.2-0.3 0.2 -0.1 0-0.2 0.1-0.2 0.2 0 0.1 0 0.1 0 0.2 0 00000M54.1-48.7c0 0.1 0 0.10 0.2 -0.1 0.1-0.1 0.1-0.2 0.1 0 0.1-0.1 0.3-0.1 0.4 -0.2 0.10 0.20 0.4 0 0.10 0.10 0.2 0 0.1 0 0.3 0.1 0.4 0.1 0.2 0.3 0.4 0.4 0.5 0.2 0.1 0.4 0.6 0.6 0.6 0.2 0 0.4-0.1 0.5-0.1 0.20 0.4 0 0.6-0.1 0.2-0.1 0.1-0.3 0.3-0.4 0.1-0.1 0.30 0.4-0.1 0.2-0.1 0.3-0.3 0.4-0.5 0-0.1 0-0.1 0-0.2 0-0.1 0.1-0.2 0.1-0.3 0-0.1-0.1-0.1-0.1-0.2 0-0.1 0-0.2 0-0.3 0-0.2 0-0.4-0.1-0.5 -0.4-0.7-1.2-0.9-2-0.8 -0.2 0-0.3 0.1-0.4 0.2 -0.2 0.1-0.1 0.2-0.3 0.2 -0.1 0-0.2 0.1-0.2 0.2 0 0.1 0 0.1 0 0.2 0 00000M46.5-48.7c0 0.1 0 0.10 0.2 -0.1 0.1-0.1 0.1-0.2 0.1 0 0.1-0.1 0.3-0.1 0.4 -0.2 0.10 0.20 0.4 0 0.10 0.10 0.2 0 0.1 0 0.3 0.1 0.4 0.1 0.2 0.3 0.4 0.4 0.5 0.2 0.1 0.4 0.6 0.6 0.6 0.2 0 0.4-0.1 0.5-0.1 0.20 0.4 0 0.6-0.1 0.2-0.1 0.1-0.3 0.3-0.4 0.1-0.1 0.30 0.4-0.1 0.2-0.1 0.3-0.3 0.4-0.5 0-0.1 0-0.1 0-0.2 0-0.1 0.1-0.2 0.1-0.3 0-0.1-0.1-0.1-0.1-0.2 0-0.1 0-0.2 0-0.3 0-0.2 0-0.4-0.1-0.5 -0.4-0.7-1.2-0.9-2-0.8 -0.2 0-0.3 0.1-0.4 0.2 -0.2 0.1-0.1 0.2-0.3 0.2 -0.1 0-0.2 0.1-0.2 0.2 0 0.1 0 0.1 0 0.2 0 00000M38.8-48.7c0 0.1 0 0.10 0.2 -0.1 0.1-0.1 0.1-0.2 0.1 0 0.1-0.1 0.3-0.1 0.4 -0.2 0.10 0.20 0.4 0 0.10 0.10 0.2 0 0.1 0 0.3 0.1 0.4 0.1 0.2 0.3 0.4 0.4 0.5 0.2 0.1 0.4 0.6 0.6 0.6 0.2 0 0.4-0.1 0.5-0.1 0.20 0.4 0 0.6-0.1 0.2-0.1 0.1-0.3 0.3-0.4 0.1-0.1 0.30 0.4-0.1 0.2-0.1 0.3-0.3 0.4-0.5 0-0.1 0-0.1 0-0.2 0-0.1 0.1-0.2 0.1-0.3 0-0.1-0.1-0.1-0.1-0.2 0-0.1 0-0.2 0-0.3 0-0.2 0-0.4-0.1-0.5 -0.4-0.7-1.2-0.9-2-0.8 -0.2 0-0.3 0.1-0.4 0.2 -0.2 0.1-0.1 0.2-0.3 0.2 -0.1 0-0.2 0.1-0.2 0.2 0 0.1 0 0.1 0 0.2 0 00000M31.1-48.7c0 0.1 0 0.10 0.2 -0.1 0.1-0.1 0.1-0.2 0.1 0 0.1-0.1 0.3-0.1 0.4 -0.2 0.10 0.20 0.4 0 0.10 0.10 0.2 0 0.1 0 0.3 0.1 0.4 0.1 0.2 0.3 0.4 0.4 0.5 0.2 0.1 0.4 0.6 0.6 0.6 0.2 0 0.4-0.1 0.5-0.1 0.20 0.4 0 0.6-0.1 0.2-0.1 0.1-0.3 0.3-0.4 0.1-0.1 0.30 0.4-0.1 0.2-0.1 0.3-0.3 0.4-0.5 0-0.1 0-0.1 0-0.2 0-0.1 0.1-0.2 0.1-0.3 0-0.1-0.1-0.1-0.1-0.2 0-0.1 0-0.2 0-0.3 0-0.2 0-0.4-0.1-0.5 -0.4-0.7-1.2-0.9-2-0.8 -0.2 0-0.3 0.1-0.4 0.2 -0.2 0.1-0.1 0.2-0.3 0.2 -0.1 0-0.2 0.1-0.2 0.2 0 0.1 0 0.1 0 0.2 0 00000M23.5-48.7c0 0.1 0 0.10 0.2 -0.1 0.1-0.1 0.1-0.2 0.1 0 0.1-0.1 0.3-0.1 0.4 -0.2 0.10 0.20 0.4 0 0.10 0.10 0.2 0 0.1 0 0.3 0.1 0.4 0.1 0.2 0.3 0.4 0.4 0.5 0.2 0.1 0.4 0.6 0.6 0.6 0.2 0 0.4-0.1 0.5-0.1 0.20 0.4 0 0.6-0.1 0.2-0.1 0.1-0.3 0.3-0.4 0.1-0.1 0.30 0.4-0.1 0.2-0.1 0.3-0.3 0.4-0.5 0-0.1 0-0.1 0-0.2 0-0.1 0.1-0.2 0.1-0.3 0-0.1-0.1-0.1-0.1-0.2 0-0.1 0-0.2 0-0.3 0-0.2 0-0.4-0.1-0.5 -0.4-0.7-1.2-0.9-2-0.8 -0.2 0-0.3 0.1-0.4 0.2 -0.2 0.1-0.1 0.2-0.3 0.2 -0.1 0-0.2 0.1-0.2 0.2 0 0.1 0 0.1 0 0.2 0 00000M15.8-48.7c0 0.1 0 0.10 0.2 -0.1 0.1-0.1 0.1-0.2 0.1 0 0.1-0.1 0.3-0.1 0.4 -0.2 0.10 0.20 0.4 0 0.10 0.10 0.2 0 0.1 0 0.3 0.1 0.4 0.1 0.2 0.3 0.4 0.4 0.5 0.2 0.1 0.4 0.6 0.6 0.6 0.2 0 0.4-0.1 0.5-0.1 0.20 0.4 0 0.6-0.1 0.2-0.1 0.1-0.3 0.3-0.4 0.1-0.1 0.30 0.4-0.1 0.2-0.1 0.3-0.3 0.4-0.5 0-0.1 0-0.1 0-0.2 0-0.1 0.1-0.2 0.1-0.3 0-0.1-0.1-0.1-0.1-0.2 0-0.1 0-0.2 0-0.3 0-0.2 0-0.4-0.1-0.5 -0.4-0.7-1.2-0.9-2-0.8 -0.2 0-0.3 0.1-0.4 0.2 -0.2 0.1-0.1 0.2-0.3 0.2 -0.1 0-0.2 0.1-0.2 0.2 0 0.1 0 0.1 0 0.2 0 00000M8.2-48.7c0 0.1 0 0.10 0.2 -0.1 0.1-0.1 0.1-0.2 0.1 0 0.1-0.1 0.3-0.1 0.4 -0.2 0.10 0.20 0.4 0 0.10 0.10 0.2 0 0.1 0 0.3 0.1 0.4 0.1 0.2 0.3 0.4 0.4 0.5 0.2 0.1 0.4 0.6 0.6 0.6 0.2 0 0.4-0.1 0.5-0.1 0.20 0.4 0 0.6-0.1 0.2-0.1 0.1-0.3 0.3-0.4 0.1-0.1 0.30 0.4-0.1 0.2-0.1 0.3-0.3 0.4-0.5 0-0.1 0-0.1 0-0.2 0-0.1 0.1-0.2 0.1-0.3 0-0.1-0.1-0.1-0.1-0.2 0-0.1 0-0.2 0-0.3 0-0.2 0-0.4-0.1-0.5 -0.4-0.7-1.2-0.9-2-0.8 -0.2 0-0.3 0.1-0.4 0.2 -0.2 0.1-0.1 0.2-0.3 0.2 -0.1 0-0.2 0.1-0.2 0.2 0 0.1 0 0.1 0 0.2 0 00000M0.5-48.7c0 0.1 0 0.10 0.2 -0.1 0.1-0.1 0.1-0.2 0.1 0 0.1-0.1 0.3-0.1 0.4 -0.2 0.10 0.20 0.4 0 0.10 0.10 0.2 0 0.1 0 0.3 0.1 0.4 0.1 0.2 0.3 0.4 0.4 0.5 0.2 0.1 0.4 0.6 0.6 0.6 0.2 0 0.4-0.1 0.5-0.1 0.20 0.4 0 0.6-0.1 0.2-0.1 0.1-0.3 0.3-0.4 0.1-0.1 0.30 0.4-0.1 0.2-0.1 0.3-0.3 0.4-0.5 0-0.1 0-0.1 0-0.2 0-0.1 0.1-0.2 0.1-0.3 0-0.1-0.1-0.1-0.1-0.2 0-0.1 0-0.2 0-0.3 0-0.2 0-0.4-0.1-0.5 -0.4-0.7-1.2-0.9-2-0.8 -0.2 0-0.3 0.1-0.4 0.2 -0.2 0.1-0.1 0.2-0.3 0.2 -0.1 0-0.2 0.1-0.2 0.2 0 0.1 0 0.1 0 0.2 0 00000" class="style2"/><path d="M69.4-41c0 0.1 0 0.10 0.2 -0.1 0.1-0.1 0.1-0.2 0.1 0 0.1-0.1 0.3-0.1 0.4 -0.2 0.10 0.20 0.4 0 0.10 0.10 0.2 0 0.1 0 0.3 0.1 0.4 0.1 0.2 0.3 0.4 0.4 0.5 0.2 0.1 0.4 0.6 0.6 0.6 0.2 0 0.4-0.1 0.5-0.1 0.20 0.4 0 0.6-0.1 0.2-0.1 0.1-0.3 0.3-0.4 0.1-0.1 0.30 0.4-0.1 0.2-0.1 0.3-0.3 0.4-0.5 0-0.1 0-0.1 0-0.2 0-0.1 0.1-0.2 0.1-0.3 0-0.1-0.1-0.1-0.1-0.2 0-0.1 0-0.2 0-0.3 0-0.2 0-0.4-0.1-0.5 -0.4-0.7-1.2-0.9-2-0.8 -0.2 0-0.3 0.1-0.4 0.2 -0.2 0.1-0.1 0.2-0.3 0.2 -0.1 0-0.2 0.1-0.2 0.2 0 0.1 0 0.1 0 0.2 0 00000M61.8-41c0 0.1 0 0.10 0.2 -0.1 0.1-0.1 0.1-0.2 0.1 0 0.1-0.1 0.3-0.1 0.4 -0.2 0.10 0.20 0.4 0 0.10 0.10 0.2 0 0.1 0 0.3 0.1 0.4 0.1 0.2 0.3 0.4 0.4 0.5 0.2 0.1 0.4 0.6 0.6 0.6 0.2 0 0.4-0.1 0.5-0.1 0.20 0.4 0 0.6-0.1 0.2-0.1 0.1-0.3 0.3-0.4 0.1-0.1 0.30 0.4-0.1 0.2-0.1 0.3-0.3 0.4-0.5 0-0.1 0-0.1 0-0.2 0-0.1 0.1-0.2 0.1-0.3 0-0.1-0.1-0.1-0.1-0.2 0-0.1 0-0.2 0-0.3 0-0.2 0-0.4-0.1-0.5 -0.4-0.7-1.2-0.9-2-0.8 -0.2 0-0.3 0.1-0.4 0.2 -0.2 0.1-0.1 0.2-0.3 0.2 -0.1 0-0.2 0.1-0.2 0.2 0 0.1 0 0.1 0 0.2 0 00000M54.1-41c0 0.1 0 0.10 0.2 -0.1 0.1-0.1 0.1-0.2 0.1 0 0.1-0.1 0.3-0.1 0.4 -0.2 0.10 0.20 0.4 0 0.10 0.10 0.2 0 0.1 0 0.3 0.1 0.4 0.1 0.2 0.3 0.4 0.4 0.5 0.2 0.1 0.4 0.6 0.6 0.6 0.2 0 0.4-0.1 0.5-0.1 0.20 0.4 0 0.6-0.1 0.2-0.1 0.1-0.3 0.3-0.4 0.1-0.1 0.30 0.4-0.1 0.2-0.1 0.3-0.3 0.4-0.5 0-0.1 0-0.1 0-0.2 0-0.1 0.1-0.2 0.1-0.3 0-0.1-0.1-0.1-0.1-0.2 0-0.1 0-0.2 0-0.3 0-0.2 0-0.4-0.1-0.5 -0.4-0.7-1.2-0.9-2-0.8 -0.2 0-0.3 0.1-0.4 0.2 -0.2 0.1-0.1 0.2-0.3 0.2 -0.1 0-0.2 0.1-0.2 0.2 0 0.1 0 0.1 0 0.2 0 00000M46.5-41c0 0.1 0 0.10 0.2 -0.1 0.1-0.1 0.1-0.2 0.1 0 0.1-0.1 0.3-0.1 0.4 -0.2 0.10 0.20 0.4 0 0.10 0.10 0.2 0 0.1 0 0.3 0.1 0.4 0.1 0.2 0.3 0.4 0.4 0.5 0.2 0.1 0.4 0.6 0.6 0.6 0.2 0 0.4-0.1 0.5-0.1 0.20 0.4 0 0.6-0.1 0.2-0.1 0.1-0.3 0.3-0.4 0.1-0.1 0.30 0.4-0.1 0.2-0.1 0.3-0.3 0.4-0.5 0-0.1 0-0.1 0-0.2 0-0.1 0.1-0.2 0.1-0.3 0-0.1-0.1-0.1-0.1-0.2 0-0.1 0-0.2 0-0.3 0-0.2 0-0.4-0.1-0.5 -0.4-0.7-1.2-0.9-2-0.8 -0.2 0-0.3 0.1-0.4 0.2 -0.2 0.1-0.1 0.2-0.3 0.2 -0.1 0-0.2 0.1-0.2 0.2 0 0.1 0 0.1 0 0.2 0 00000M38.8-41c0 0.1 0 0.10 0.2 -0.1 0.1-0.1 0.1-0.2 0.1 0 0.1-0.1 0.3-0.1 0.4 -0.2 0.10 0.20 0.4 0 0.10 0.10 0.2 0 0.1 0 0.3 0.1 0.4 0.1 0.2 0.3 0.4 0.4 0.5 0.2 0.1 0.4 0.6 0.6 0.6 0.2 0 0.4-0.1 0.5-0.1 0.20 0.4 0 0.6-0.1 0.2-0.1 0.1-0.3 0.3-0.4 0.1-0.1 0.30 0.4-0.1 0.2-0.1 0.3-0.3 0.4-0.5 0-0.1 0-0.1 0-0.2 0-0.1 0.1-0.2 0.1-0.3 0-0.1-0.1-0.1-0.1-0.2 0-0.1 0-0.2 0-0.3 0-0.2 0-0.4-0.1-0.5 -0.4-0.7-1.2-0.9-2-0.8 -0.2 0-0.3 0.1-0.4 0.2 -0.2 0.1-0.1 0.2-0.3 0.2 -0.1 0-0.2 0.1-0.2 0.2 0 0.1 0 0.1 0 0.2 0 00000M31.1-41c0 0.1 0 0.10 0.2 -0.1 0.1-0.1 0.1-0.2 0.1 0 0.1-0.1 0.3-0.1 0.4 -0.2 0.10 0.20 0.4 0 0.10 0.10 0.2 0 0.1 0 0.3 0.1 0.4 0.1 0.2 0.3 0.4 0.4 0.5 0.2 0.1 0.4 0.6 0.6 0.6 0.2 0 0.4-0.1 0.5-0.1 0.20 0.4 0 0.6-0.1 0.2-0.1 0.1-0.3 0.3-0.4 0.1-0.1 0.30 0.4-0.1 0.2-0.1 0.3-0.3 0.4-0.5 0-0.1 0-0.1 0-0.2 0-0.1 0.1-0.2 0.1-0.3 0-0.1-0.1-0.1-0.1-0.2 0-0.1 0-0.2 0-0.3 0-0.2 0-0.4-0.1-0.5 -0.4-0.7-1.2-0.9-2-0.8 -0.2 0-0.3 0.1-0.4 0.2 -0.2 0.1-0.1 0.2-0.3 0.2 -0.1 0-0.2 0.1-0.2 0.2 0 0.1 0 0.1 0 0.2 0 00000M23.5-41c0 0.1 0 0.10 0.2 -0.1 0.1-0.1 0.1-0.2 0.1 0 0.1-0.1 0.3-0.1 0.4 -0.2 0.10 0.20 0.4 0 0.10 0.10 0.2 0 0.1 0 0.3 0.1 0.4 0.1 0.2 0.3 0.4 0.4 0.5 0.2 0.1 0.4 0.6 0.6 0.6 0.2 0 0.4-0.1 0.5-0.1 0.20 0.4 0 0.6-0.1 0.2-0.1 0.1-0.3 0.3-0.4 0.1-0.1 0.30 0.4-0.1 0.2-0.1 0.3-0.3 0.4-0.5 0-0.1 0-0.1 0-0.2 0-0.1 0.1-0.2 0.1-0.3 0-0.1-0.1-0.1-0.1-0.2 0-0.1 0-0.2 0-0.3 0-0.2 0-0.4-0.1-0.5 -0.4-0.7-1.2-0.9-2-0.8 -0.2 0-0.3 0.1-0.4 0.2 -0.2 0.1-0.1 0.2-0.3 0.2 -0.1 0-0.2 0.1-0.2 0.2 0 0.1 0 0.1 0 0.2 0 00000M15.8-41c0 0.1 0 0.10 0.2 -0.1 0.1-0.1 0.1-0.2 0.1 0 0.1-0.1 0.3-0.1 0.4 -0.2 0.10 0.20 0.4 0 0.10 0.10 0.2 0 0.1 0 0.3 0.1 0.4 0.1 0.2 0.3 0.4 0.4 0.5 0.2 0.1 0.4 0.6 0.6 0.6 0.2 0 0.4-0.1 0.5-0.1 0.20 0.4 0 0.6-0.1 0.2-0.1 0.1-0.3 0.3-0.4 0.1-0.1 0.30 0.4-0.1 0.2-0.1 0.3-0.3 0.4-0.5 0-0.1 0-0.1 0-0.2 0-0.1 0.1-0.2 0.1-0.3 0-0.1-0.1-0.1-0.1-0.2 0-0.1 0-0.2 0-0.3 0-0.2 0-0.4-0.1-0.5 -0.4-0.7-1.2-0.9-2-0.8 -0.2 0-0.3 0.1-0.4 0.2 -0.2 0.1-0.1 0.2-0.3 0.2 -0.1 0-0.2 0.1-0.2 0.2 0 0.1 0 0.1 0 0.2 0 00000M8.2-41c0 0.1 0 0.10 0.2 -0.1 0.1-0.1 0.1-0.2 0.1 0 0.1-0.1 0.3-0.1 0.4 -0.2 0.10 0.20 0.4 0 0.10 0.10 0.2 0 0.1 0 0.3 0.1 0.4 0.1 0.2 0.3 0.4 0.4 0.5 0.2 0.1 0.4 0.6 0.6 0.6 0.2 0 0.4-0.1 0.5-0.1 0.20 0.4 0 0.6-0.1 0.2-0.1 0.1-0.3 0.3-0.4 0.1-0.1 0.30 0.4-0.1 0.2-0.1 0.3-0.3 0.4-0.5 0-0.1 0-0.1 0-0.2 0-0.1 0.1-0.2 0.1-0.3 0-0.1-0.1-0.1-0.1-0.2 0-0.1 0-0.2 0-0.3 0-0.2 0-0.4-0.1-0.5 -0.4-0.7-1.2-0.9-2-0.8 -0.2 0-0.3 0.1-0.4 0.2 -0.2 0.1-0.1 0.2-0.3 0.2 -0.1 0-0.2 0.1-0.2 0.2 0 0.1 0 0.1 0 0.2C8.2-41 8.1-41 8.1-41M0.5-41c0 0.1 0 0.10 0.2 -0.1 0.1-0.1 0.1-0.2 0.1 0 0.1-0.1 0.3-0.1 0.4 -0.2 0.10 0.20 0.4 0 0.10 0.10 0.2 0 0.1 0 0.3 0.1 0.4 0.1 0.2 0.3 0.4 0.4 0.5 0.2 0.1 0.4 0.6 0.6 0.6 0.2 0 0.4-0.1 0.5-0.1 0.20 0.4 0 0.6-0.1 0.2-0.1 0.1-0.3 0.3-0.4 0.1-0.1 0.30 0.4-0.1 0.2-0.1 0.3-0.3 0.4-0.5 0-0.1 0-0.1 0-0.2 0-0.1 0.1-0.2 0.1-0.3 0-0.1-0.1-0.1-0.1-0.2 0-0.1 0-0.2 0-0.3 0-0.2 0-0.4-0.1-0.5 -0.4-0.7-1.2-0.9-2-0.8 -0.2 0-0.3 0.1-0.4 0.2 -0.2 0.1-0.1 0.2-0.3 0.2 -0.1 0-0.2 0.1-0.2 0.2 0 0.1 0 0.1 0 0.2 0 00000" class="style2"/><path d="M69.4-33.4c0 0.1 0 0.10 0.2 -0.1 0.1-0.1 0.1-0.2 0.1 0 0.1-0.1 0.3-0.1 0.4 -0.2 0.10 0.20 0.4 0 0.10 0.10 0.2 0 0.1 0 0.3 0.1 0.4 0.1 0.2 0.3 0.4 0.4 0.5 0.2 0.1 0.4 0.6 0.6 0.6 0.2 0 0.4-0.1 0.5-0.1 0.20 0.4 0 0.6-0.1 0.2-0.1 0.1-0.3 0.3-0.4 0.1-0.1 0.30 0.4-0.1 0.2-0.1 0.3-0.3 0.4-0.5 0-0.1 0-0.1 0-0.2 0-0.1 0.1-0.2 0.1-0.3 0-0.1-0.1-0.1-0.1-0.2 0-0.1 0-0.2 0-0.3 0-0.2 0-0.4-0.1-0.5 -0.4-0.7-1.2-0.9-2-0.8 -0.2 0-0.3 0.1-0.4 0.2 -0.2 0.1-0.1 0.2-0.3 0.2 -0.1 0-0.2 0.1-0.2 0.2 0 0.1 0 0.1 0 0.2 0 00000M61.8-33.4c0 0.1 0 0.10 0.2 -0.1 0.1-0.1 0.1-0.2 0.1 0 0.1-0.1 0.3-0.1 0.4 -0.2 0.10 0.20 0.4 0 0.10 0.10 0.2 0 0.1 0 0.3 0.1 0.4 0.1 0.2 0.3 0.4 0.4 0.5 0.2 0.1 0.4 0.6 0.6 0.6 0.2 0 0.4-0.1 0.5-0.1 0.20 0.4 0 0.6-0.1 0.2-0.1 0.1-0.3 0.3-0.4 0.1-0.1 0.30 0.4-0.1 0.2-0.1 0.3-0.3 0.4-0.5 0-0.1 0-0.1 0-0.2 0-0.1 0.1-0.2 0.1-0.3 0-0.1-0.1-0.1-0.1-0.2 0-0.1 0-0.2 0-0.3 0-0.2 0-0.4-0.1-0.5 -0.4-0.7-1.2-0.9-2-0.8 -0.2 0-0.3 0.1-0.4 0.2 -0.2 0.1-0.1 0.2-0.3 0.2 -0.1 0-0.2 0.1-0.2 0.2 0 0.1 0 0.1 0 0.2 0 00000M54.1-33.4c0 0.1 0 0.10 0.2 -0.1 0.1-0.1 0.1-0.2 0.1 0 0.1-0.1 0.3-0.1 0.4 -0.2 0.10 0.20 0.4 0 0.10 0.10 0.2 0 0.1 0 0.3 0.1 0.4 0.1 0.2 0.3 0.4 0.4 0.5 0.2 0.1 0.4 0.6 0.6 0.6 0.2 0 0.4-0.1 0.5-0.1 0.20 0.4 0 0.6-0.1 0.2-0.1 0.1-0.3 0.3-0.4 0.1-0.1 0.30 0.4-0.1 0.2-0.1 0.3-0.3 0.4-0.5 0-0.1 0-0.1 0-0.2 0-0.1 0.1-0.2 0.1-0.3 0-0.1-0.1-0.1-0.1-0.2 0-0.1 0-0.2 0-0.3 0-0.2 0-0.4-0.1-0.5 -0.4-0.7-1.2-0.9-2-0.8 -0.2 0-0.3 0.1-0.4 0.2 -0.2 0.1-0.1 0.2-0.3 0.2 -0.1 0-0.2 0.1-0.2 0.2 0 0.1 0 0.1 0 0.2 0 00000M46.5-33.4c0 0.1 0 0.10 0.2 -0.1 0.1-0.1 0.1-0.2 0.1 0 0.1-0.1 0.3-0.1 0.4 -0.2 0.10 0.20 0.4 0 0.10 0.10 0.2 0 0.1 0 0.3 0.1 0.4 0.1 0.2 0.3 0.4 0.4 0.5 0.2 0.1 0.4 0.6 0.6 0.6 0.2 0 0.4-0.1 0.5-0.1 0.20 0.4 0 0.6-0.1 0.2-0.1 0.1-0.3 0.3-0.4 0.1-0.1 0.30 0.4-0.1 0.2-0.1 0.3-0.3 0.4-0.5 0-0.1 0-0.1 0-0.2 0-0.1 0.1-0.2 0.1-0.3 0-0.1-0.1-0.1-0.1-0.2 0-0.1 0-0.2 0-0.3 0-0.2 0-0.4-0.1-0.5 -0.4-0.7-1.2-0.9-2-0.8 -0.2 0-0.3 0.1-0.4 0.2 -0.2 0.1-0.1 0.2-0.3 0.2 -0.1 0-0.2 0.1-0.2 0.2 0 0.1 0 0.1 0 0.2 0 00000M38.8-33.4c0 0.1 0 0.10 0.2 -0.1 0.1-0.1 0.1-0.2 0.1 0 0.1-0.1 0.3-0.1 0.4 -0.2 0.10 0.20 0.4 0 0.10 0.10 0.2 0 0.1 0 0.3 0.1 0.4 0.1 0.2 0.3 0.4 0.4 0.5 0.2 0.1 0.4 0.6 0.6 0.6 0.2 0 0.4-0.1 0.5-0.1 0.20 0.4 0 0.6-0.1 0.2-0.1 0.1-0.3 0.3-0.4 0.1-0.1 0.30 0.4-0.1 0.2-0.1 0.3-0.3 0.4-0.5 0-0.1 0-0.1 0-0.2 0-0.1 0.1-0.2 0.1-0.3 0-0.1-0.1-0.1-0.1-0.2 0-0.1 0-0.2 0-0.3 0-0.2 0-0.4-0.1-0.5 -0.4-0.7-1.2-0.9-2-0.8 -0.2 0-0.3 0.1-0.4 0.2 -0.2 0.1-0.1 0.2-0.3 0.2 -0.1 0-0.2 0.1-0.2 0.2 0 0.1 0 0.1 0 0.2 0 00000M31.1-33.4c0 0.1 0 0.10 0.2 -0.1 0.1-0.1 0.1-0.2 0.1 0 0.1-0.1 0.3-0.1 0.4 -0.2 0.10 0.20 0.4 0 0.10 0.10 0.2 0 0.1 0 0.3 0.1 0.4 0.1 0.2 0.3 0.4 0.4 0.5 0.2 0.1 0.4 0.6 0.6 0.6 0.2 0 0.4-0.1 0.5-0.1 0.20 0.4 0 0.6-0.1 0.2-0.1 0.1-0.3 0.3-0.4 0.1-0.1 0.30 0.4-0.1 0.2-0.1 0.3-0.3 0.4-0.5 0-0.1 0-0.1 0-0.2 0-0.1 0.1-0.2 0.1-0.3 0-0.1-0.1-0.1-0.1-0.2 0-0.1 0-0.2 0-0.3 0-0.2 0-0.4-0.1-0.5 -0.4-0.7-1.2-0.9-2-0.8 -0.2 0-0.3 0.1-0.4 0.2 -0.2 0.1-0.1 0.2-0.3 0.2 -0.1 0-0.2 0.1-0.2 0.2 0 0.1 0 0.1 0 0.2 0 00000M23.5-33.4c0 0.1 0 0.10 0.2 -0.1 0.1-0.1 0.1-0.2 0.1 0 0.1-0.1 0.3-0.1 0.4 -0.2 0.10 0.20 0.4 0 0.10 0.10 0.2 0 0.1 0 0.3 0.1 0.4 0.1 0.2 0.3 0.4 0.4 0.5 0.2 0.1 0.4 0.6 0.6 0.6 0.2 0 0.4-0.1 0.5-0.1 0.20 0.4 0 0.6-0.1 0.2-0.1 0.1-0.3 0.3-0.4 0.1-0.1 0.30 0.4-0.1 0.2-0.1 0.3-0.3 0.4-0.5 0-0.1 0-0.1 0-0.2 0-0.1 0.1-0.2 0.1-0.3 0-0.1-0.1-0.1-0.1-0.2 0-0.1 0-0.2 0-0.3 0-0.2 0-0.4-0.1-0.5 -0.4-0.7-1.2-0.9-2-0.8 -0.2 0-0.3 0.1-0.4 0.2 -0.2 0.1-0.1 0.2-0.3 0.2 -0.1 0-0.2 0.1-0.2 0.2 0 0.1 0 0.1 0 0.2 0 00000M15.8-33.4c0 0.1 0 0.10 0.2 -0.1 0.1-0.1 0.1-0.2 0.1 0 0.1-0.1 0.3-0.1 0.4 -0.2 0.10 0.20 0.4 0 0.10 0.10 0.2 0 0.1 0 0.3 0.1 0.4 0.1 0.2 0.3 0.4 0.4 0.5 0.2 0.1 0.4 0.6 0.6 0.6 0.2 0 0.4-0.1 0.5-0.1 0.20 0.4 0 0.6-0.1 0.2-0.1 0.1-0.3 0.3-0.4 0.1-0.1 0.30 0.4-0.1 0.2-0.1 0.3-0.3 0.4-0.5 0-0.1 0-0.1 0-0.2 0-0.1 0.1-0.2 0.1-0.3 0-0.1-0.1-0.1-0.1-0.2 0-0.1 0-0.2 0-0.3 0-0.2 0-0.4-0.1-0.5 -0.4-0.7-1.2-0.9-2-0.8 -0.2 0-0.3 0.1-0.4 0.2 -0.2 0.1-0.1 0.2-0.3 0.2 -0.1 0-0.2 0.1-0.2 0.2 0 0.1 0 0.1 0 0.2 0 00000M8.2-33.4c0 0.1 0 0.10 0.2 -0.1 0.1-0.1 0.1-0.2 0.1 0 0.1-0.1 0.3-0.1 0.4 -0.2 0.10 0.20 0.4 0 0.10 0.10 0.2 0 0.1 0 0.3 0.1 0.4 0.1 0.2 0.3 0.4 0.4 0.5 0.2 0.1 0.4 0.6 0.6 0.6 0.2 0 0.4-0.1 0.5-0.1 0.20 0.4 0 0.6-0.1 0.2-0.1 0.1-0.3 0.3-0.4 0.1-0.1 0.30 0.4-0.1 0.2-0.1 0.3-0.3 0.4-0.5 0-0.1 0-0.1 0-0.2 0-0.1 0.1-0.2 0.1-0.3 0-0.1-0.1-0.1-0.1-0.2 0-0.1 0-0.2 0-0.3 0-0.2 0-0.4-0.1-0.5 -0.4-0.7-1.2-0.9-2-0.8 -0.2 0-0.3 0.1-0.4 0.2 -0.2 0.1-0.1 0.2-0.3 0.2 -0.1 0-0.2 0.1-0.2 0.2 0 0.1 0 0.1 0 0.2 0 00000M0.5-33.4c0 0.1 0 0.10 0.2 -0.1 0.1-0.1 0.1-0.2 0.1 0 0.1-0.1 0.3-0.1 0.4 -0.2 0.10 0.20 0.4 0 0.10 0.10 0.2 0 0.1 0 0.3 0.1 0.4 0.1 0.2 0.3 0.4 0.4 0.5 0.2 0.1 0.4 0.6 0.6 0.6 0.2 0 0.4-0.1 0.5-0.1 0.20 0.4 0 0.6-0.1 0.2-0.1 0.1-0.3 0.3-0.4 0.1-0.1 0.30 0.4-0.1 0.2-0.1 0.3-0.3 0.4-0.5 0-0.1 0-0.1 0-0.2 0-0.1 0.1-0.2 0.1-0.3 0-0.1-0.1-0.1-0.1-0.2 0-0.1 0-0.2 0-0.3 0-0.2 0-0.4-0.1-0.5 -0.4-0.7-1.2-0.9-2-0.8 -0.2 0-0.3 0.1-0.4 0.2 -0.2 0.1-0.1 0.2-0.3 0.2 -0.1 0-0.2 0.1-0.2 0.2C0.5-33.4 0.5-33.5 0.5-33.4c0 00000" class="style2"/><path d="M69.4-25.7c0 0.1 0 0.10 0.2 -0.1 0.1-0.1 0.1-0.2 0.1 0 0.1-0.1 0.3-0.1 0.4 -0.2 0.10 0.20 0.4 0 0.10 0.10 0.2 0 0.1 0 0.3 0.1 0.4 0.1 0.2 0.3 0.4 0.4 0.5 0.2 0.1 0.4 0.6 0.6 0.6 0.2 0 0.4-0.1 0.5-0.1 0.20 0.4 0 0.6-0.1 0.2-0.1 0.1-0.3 0.3-0.4 0.1-0.1 0.30 0.4-0.1 0.2-0.1 0.3-0.3 0.4-0.5 0-0.1 0-0.1 0-0.2 0-0.1 0.1-0.2 0.1-0.3 0-0.1-0.1-0.1-0.1-0.2 0-0.1 0-0.2 0-0.3 0-0.2 0-0.4-0.1-0.5 -0.4-0.7-1.2-0.9-2-0.8 -0.2 0-0.3 0.1-0.4 0.2 -0.2 0.1-0.1 0.2-0.3 0.2 -0.1 0-0.2 0.1-0.2 0.2 0 0.1 0 0.1 0 0.2 0 00000M61.8-25.7c0 0.1 0 0.10 0.2 -0.1 0.1-0.1 0.1-0.2 0.1 0 0.1-0.1 0.3-0.1 0.4 -0.2 0.10 0.20 0.4 0 0.10 0.10 0.2 0 0.1 0 0.3 0.1 0.4 0.1 0.2 0.3 0.4 0.4 0.5 0.2 0.1 0.4 0.6 0.6 0.6 0.2 0 0.4-0.1 0.5-0.1 0.20 0.4 0 0.6-0.1 0.2-0.1 0.1-0.3 0.3-0.4 0.1-0.1 0.30 0.4-0.1 0.2-0.1 0.3-0.3 0.4-0.5 0-0.1 0-0.1 0-0.2 0-0.1 0.1-0.2 0.1-0.3 0-0.1-0.1-0.1-0.1-0.2 0-0.1 0-0.2 0-0.3 0-0.2 0-0.4-0.1-0.5 -0.4-0.7-1.2-0.9-2-0.8 -0.2 0-0.3 0.1-0.4 0.2 -0.2 0.1-0.1 0.2-0.3 0.2 -0.1 0-0.2 0.1-0.2 0.2 0 0.1 0 0.1 0 0.2 0 00000M54.1-25.7c0 0.1 0 0.10 0.2 -0.1 0.1-0.1 0.1-0.2 0.1 0 0.1-0.1 0.3-0.1 0.4 -0.2 0.10 0.20 0.4 0 0.10 0.10 0.2 0 0.1 0 0.3 0.1 0.4 0.1 0.2 0.3 0.4 0.4 0.5 0.2 0.1 0.4 0.6 0.6 0.6 0.2 0 0.4-0.1 0.5-0.1 0.20 0.4 0 0.6-0.1 0.2-0.1 0.1-0.3 0.3-0.4 0.1-0.1 0.30 0.4-0.1 0.2-0.1 0.3-0.3 0.4-0.5 0-0.1 0-0.1 0-0.2 0-0.1 0.1-0.2 0.1-0.3 0-0.1-0.1-0.1-0.1-0.2 0-0.1 0-0.2 0-0.3 0-0.2 0-0.4-0.1-0.5 -0.4-0.7-1.2-0.9-2-0.8 -0.2 0-0.3 0.1-0.4 0.2 -0.2 0.1-0.1 0.2-0.3 0.2 -0.1 0-0.2 0.1-0.2 0.2 0 0.1 0 0.1 0 0.2 0 00000M46.5-25.7c0 0.1 0 0.10 0.2 -0.1 0.1-0.1 0.1-0.2 0.1 0 0.1-0.1 0.3-0.1 0.4 -0.2 0.10 0.20 0.4 0 0.10 0.10 0.2 0 0.1 0 0.3 0.1 0.4 0.1 0.2 0.3 0.4 0.4 0.5 0.2 0.1 0.4 0.6 0.6 0.6 0.2 0 0.4-0.1 0.5-0.1 0.20 0.4 0 0.6-0.1 0.2-0.1 0.1-0.3 0.3-0.4 0.1-0.1 0.30 0.4-0.1 0.2-0.1 0.3-0.3 0.4-0.5 0-0.1 0-0.1 0-0.2 0-0.1 0.1-0.2 0.1-0.3 0-0.1-0.1-0.1-0.1-0.2 0-0.1 0-0.2 0-0.3 0-0.2 0-0.4-0.1-0.5 -0.4-0.7-1.2-0.9-2-0.8 -0.2 0-0.3 0.1-0.4 0.2 -0.2 0.1-0.1 0.2-0.3 0.2 -0.1 0-0.2 0.1-0.2 0.2 0 0.1 0 0.1 0 0.2 0 00000M38.8-25.7c0 0.1 0 0.10 0.2 -0.1 0.1-0.1 0.1-0.2 0.1 0 0.1-0.1 0.3-0.1 0.4 -0.2 0.10 0.20 0.4 0 0.10 0.10 0.2 0 0.1 0 0.3 0.1 0.4 0.1 0.2 0.3 0.4 0.4 0.5 0.2 0.1 0.4 0.6 0.6 0.6 0.2 0 0.4-0.1 0.5-0.1 0.20 0.4 0 0.6-0.1 0.2-0.1 0.1-0.3 0.3-0.4 0.1-0.1 0.30 0.4-0.1 0.2-0.1 0.3-0.3 0.4-0.5 0-0.1 0-0.1 0-0.2 0-0.1 0.1-0.2 0.1-0.3 0-0.1-0.1-0.1-0.1-0.2 0-0.1 0-0.2 0-0.3 0-0.2 0-0.4-0.1-0.5 -0.4-0.7-1.2-0.9-2-0.8 -0.2 0-0.3 0.1-0.4 0.2 -0.2 0.1-0.1 0.2-0.3 0.2 -0.1 0-0.2 0.1-0.2 0.2 0 0.1 0 0.1 0 0.2 0 00000M31.1-25.7c0 0.1 0 0.10 0.2 -0.1 0.1-0.1 0.1-0.2 0.1 0 0.1-0.1 0.3-0.1 0.4 -0.2 0.10 0.20 0.4 0 0.10 0.10 0.2 0 0.1 0 0.3 0.1 0.4 0.1 0.2 0.3 0.4 0.4 0.5 0.2 0.1 0.4 0.6 0.6 0.6 0.2 0 0.4-0.1 0.5-0.1 0.20 0.4 0 0.6-0.1 0.2-0.1 0.1-0.3 0.3-0.4 0.1-0.1 0.30 0.4-0.1 0.2-0.1 0.3-0.3 0.4-0.5 0-0.1 0-0.1 0-0.2 0-0.1 0.1-0.2 0.1-0.3 0-0.1-0.1-0.1-0.1-0.2 0-0.1 0-0.2 0-0.3 0-0.2 0-0.4-0.1-0.5 -0.4-0.7-1.2-0.9-2-0.8 -0.2 0-0.3 0.1-0.4 0.2 -0.2 0.1-0.1 0.2-0.3 0.2 -0.1 0-0.2 0.1-0.2 0.2 0 0.1 0 0.1 0 0.2 0 00000M23.5-25.7c0 0.1 0 0.10 0.2 -0.1 0.1-0.1 0.1-0.2 0.1 0 0.1-0.1 0.3-0.1 0.4 -0.2 0.10 0.20 0.4 0 0.10 0.10 0.2 0 0.1 0 0.3 0.1 0.4 0.1 0.2 0.3 0.4 0.4 0.5 0.2 0.1 0.4 0.6 0.6 0.6 0.2 0 0.4-0.1 0.5-0.1 0.20 0.4 0 0.6-0.1 0.2-0.1 0.1-0.3 0.3-0.4 0.1-0.1 0.30 0.4-0.1 0.2-0.1 0.3-0.3 0.4-0.5 0-0.1 0-0.1 0-0.2 0-0.1 0.1-0.2 0.1-0.3 0-0.1-0.1-0.1-0.1-0.2 0-0.1 0-0.2 0-0.3 0-0.2 0-0.4-0.1-0.5 -0.4-0.7-1.2-0.9-2-0.8 -0.2 0-0.3 0.1-0.4 0.2 -0.2 0.1-0.1 0.2-0.3 0.2 -0.1 0-0.2 0.1-0.2 0.2 0 0.1 0 0.1 0 0.2 0 00000M15.8-25.7c0 0.1 0 0.10 0.2 -0.1 0.1-0.1 0.1-0.2 0.1 0 0.1-0.1 0.3-0.1 0.4 -0.2 0.10 0.20 0.4 0 0.10 0.10 0.2 0 0.1 0 0.3 0.1 0.4 0.1 0.2 0.3 0.4 0.4 0.5 0.2 0.1 0.4 0.6 0.6 0.6 0.2 0 0.4-0.1 0.5-0.1 0.20 0.4 0 0.6-0.1 0.2-0.1 0.1-0.3 0.3-0.4 0.1-0.1 0.30 0.4-0.1 0.2-0.1 0.3-0.3 0.4-0.5 0-0.1 0-0.1 0-0.2 0-0.1 0.1-0.2 0.1-0.3 0-0.1-0.1-0.1-0.1-0.2 0-0.1 0-0.2 0-0.3 0-0.2 0-0.4-0.1-0.5 -0.4-0.7-1.2-0.9-2-0.8 -0.2 0-0.3 0.1-0.4 0.2 -0.2 0.1-0.1 0.2-0.3 0.2 -0.1 0-0.2 0.1-0.2 0.2 0 0.1 0 0.1 0 0.2 0 00000M8.2-25.7c0 0.1 0 0.10 0.2 -0.1 0.1-0.1 0.1-0.2 0.1 0 0.1-0.1 0.3-0.1 0.4 -0.2 0.10 0.20 0.4 0 0.10 0.10 0.2 0 0.1 0 0.3 0.1 0.4 0.1 0.2 0.3 0.4 0.4 0.5 0.2 0.1 0.4 0.6 0.6 0.6 0.2 0 0.4-0.1 0.5-0.1 0.20 0.4 0 0.6-0.1 0.2-0.1 0.1-0.3 0.3-0.4 0.1-0.1 0.30 0.4-0.1 0.2-0.1 0.3-0.3 0.4-0.5 0-0.1 0-0.1 0-0.2 0-0.1 0.1-0.2 0.1-0.3 0-0.1-0.1-0.1-0.1-0.2 0-0.1 0-0.2 0-0.3 0-0.2 0-0.4-0.1-0.5 -0.4-0.7-1.2-0.9-2-0.8 -0.2 0-0.3 0.1-0.4 0.2 -0.2 0.1-0.1 0.2-0.3 0.2 -0.1 0-0.2 0.1-0.2 0.2 0 0.1 0 0.1 0 0.2 0 00000M0.5-25.7c0 0.1 0 0.10 0.2 -0.1 0.1-0.1 0.1-0.2 0.1 0 0.1-0.1 0.3-0.1 0.4 -0.2 0.10 0.20 0.4 0 0.10 0.10 0.2 0 0.1 0 0.3 0.1 0.4 0.1 0.2 0.3 0.4 0.4 0.5 0.2 0.1 0.4 0.6 0.6 0.6 0.2 0 0.4-0.1 0.5-0.1 0.20 0.4 0 0.6-0.1 0.2-0.1 0.1-0.3 0.3-0.4 0.1-0.1 0.30 0.4-0.1 0.2-0.1 0.3-0.3 0.4-0.5 0-0.1 0-0.1 0-0.2 0-0.1 0.1-0.2 0.1-0.3 0-0.1-0.1-0.1-0.1-0.2 0-0.1 0-0.2 0-0.3 0-0.2 0-0.4-0.1-0.5 -0.4-0.7-1.2-0.9-2-0.8 -0.2 0-0.3 0.1-0.4 0.2 -0.2 0.1-0.1 0.2-0.3 0.2 -0.1 0-0.2 0.1-0.2 0.2 0 0.1 0 0.1 0 0.2 0 00000" class="style2"/><path d="M69.4-18.1c0 0.1 0 0.10 0.2 -0.1 0.1-0.1 0.1-0.2 0.1 0 0.1-0.1 0.3-0.1 0.4 -0.2 0.10 0.20 0.4 0 0.10 0.10 0.2 0 0.1 0 0.3 0.1 0.4 0.1 0.2 0.3 0.4 0.4 0.5 0.2 0.1 0.4 0.6 0.6 0.6 0.2 0 0.4-0.1 0.5-0.1 0.20 0.4 0 0.6-0.1 0.2-0.1 0.1-0.3 0.3-0.4 0.1-0.1 0.30 0.4-0.1 0.2-0.1 0.3-0.3 0.4-0.5 0-0.1 0-0.1 0-0.2 0-0.1 0.1-0.2 0.1-0.3 0-0.1-0.1-0.1-0.1-0.2 0-0.1 0-0.2 0-0.3 0-0.2 0-0.4-0.1-0.5 -0.4-0.7-1.2-0.9-2-0.8 -0.2 0-0.3 0.1-0.4 0.2 -0.2 0.1-0.1 0.2-0.3 0.2 -0.1 0-0.2 0.1-0.2 0.2 0 0.1 0 0.1 0 0.2 0 00000M61.8-18.1c0 0.1 0 0.10 0.2 -0.1 0.1-0.1 0.1-0.2 0.1 0 0.1-0.1 0.3-0.1 0.4 -0.2 0.10 0.20 0.4 0 0.10 0.10 0.2 0 0.1 0 0.3 0.1 0.4 0.1 0.2 0.3 0.4 0.4 0.5 0.2 0.1 0.4 0.6 0.6 0.6 0.2 0 0.4-0.1 0.5-0.1 0.20 0.4 0 0.6-0.1 0.2-0.1 0.1-0.3 0.3-0.4 0.1-0.1 0.30 0.4-0.1 0.2-0.1 0.3-0.3 0.4-0.5 0-0.1 0-0.1 0-0.2 0-0.1 0.1-0.2 0.1-0.3 0-0.1-0.1-0.1-0.1-0.2 0-0.1 0-0.2 0-0.3 0-0.2 0-0.4-0.1-0.5 -0.4-0.7-1.2-0.9-2-0.8 -0.2 0-0.3 0.1-0.4 0.2 -0.2 0.1-0.1 0.2-0.3 0.2 -0.1 0-0.2 0.1-0.2 0.2 0 0.1 0 0.1 0 0.2 0 00000M54.1-18.1c0 0.1 0 0.10 0.2 -0.1 0.1-0.1 0.1-0.2 0.1 0 0.1-0.1 0.3-0.1 0.4 -0.2 0.10 0.20 0.4 0 0.10 0.10 0.2 0 0.1 0 0.3 0.1 0.4 0.1 0.2 0.3 0.4 0.4 0.5 0.2 0.1 0.4 0.6 0.6 0.6 0.2 0 0.4-0.1 0.5-0.1 0.20 0.4 0 0.6-0.1 0.2-0.1 0.1-0.3 0.3-0.4 0.1-0.1 0.30 0.4-0.1 0.2-0.1 0.3-0.3 0.4-0.5 0-0.1 0-0.1 0-0.2 0-0.1 0.1-0.2 0.1-0.3 0-0.1-0.1-0.1-0.1-0.2 0-0.1 0-0.2 0-0.3 0-0.2 0-0.4-0.1-0.5 -0.4-0.7-1.2-0.9-2-0.8 -0.2 0-0.3 0.1-0.4 0.2 -0.2 0.1-0.1 0.2-0.3 0.2 -0.1 0-0.2 0.1-0.2 0.2 0 0.1 0 0.1 0 0.2 0 00000M46.5-18.1c0 0.1 0 0.10 0.2 -0.1 0.1-0.1 0.1-0.2 0.1 0 0.1-0.1 0.3-0.1 0.4 -0.2 0.10 0.20 0.4 0 0.10 0.10 0.2 0 0.1 0 0.3 0.1 0.4 0.1 0.2 0.3 0.4 0.4 0.5 0.2 0.1 0.4 0.6 0.6 0.6 0.2 0 0.4-0.1 0.5-0.1 0.20 0.4 0 0.6-0.1 0.2-0.1 0.1-0.3 0.3-0.4 0.1-0.1 0.30 0.4-0.1 0.2-0.1 0.3-0.3 0.4-0.5 0-0.1 0-0.1 0-0.2 0-0.1 0.1-0.2 0.1-0.3 0-0.1-0.1-0.1-0.1-0.2 0-0.1 0-0.2 0-0.3 0-0.2 0-0.4-0.1-0.5 -0.4-0.7-1.2-0.9-2-0.8 -0.2 0-0.3 0.1-0.4 0.2 -0.2 0.1-0.1 0.2-0.3 0.2 -0.1 0-0.2 0.1-0.2 0.2 0 0.1 0 0.1 0 0.2 0 00000M38.8-18.1c0 0.1 0 0.10 0.2 -0.1 0.1-0.1 0.1-0.2 0.1 0 0.1-0.1 0.3-0.1 0.4 -0.2 0.10 0.20 0.4 0 0.10 0.10 0.2 0 0.1 0 0.3 0.1 0.4 0.1 0.2 0.3 0.4 0.4 0.5 0.2 0.1 0.4 0.6 0.6 0.6 0.2 0 0.4-0.1 0.5-0.1 0.20 0.4 0 0.6-0.1 0.2-0.1 0.1-0.3 0.3-0.4 0.1-0.1 0.30 0.4-0.1 0.2-0.1 0.3-0.3 0.4-0.5 0-0.1 0-0.1 0-0.2 0-0.1 0.1-0.2 0.1-0.3 0-0.1-0.1-0.1-0.1-0.2 0-0.1 0-0.2 0-0.3 0-0.2 0-0.4-0.1-0.5 -0.4-0.7-1.2-0.9-2-0.8 -0.2 0-0.3 0.1-0.4 0.2 -0.2 0.1-0.1 0.2-0.3 0.2 -0.1 0-0.2 0.1-0.2 0.2 0 0.1 0 0.1 0 0.2 0 00000M31.1-18.1c0 0.1 0 0.10 0.2 -0.1 0.1-0.1 0.1-0.2 0.1 0 0.1-0.1 0.3-0.1 0.4 -0.2 0.10 0.20 0.4 0 0.10 0.10 0.2 0 0.1 0 0.3 0.1 0.4 0.1 0.2 0.3 0.4 0.4 0.5 0.2 0.1 0.4 0.6 0.6 0.6 0.2 0 0.4-0.1 0.5-0.1 0.20 0.4 0 0.6-0.1 0.2-0.1 0.1-0.3 0.3-0.4 0.1-0.1 0.30 0.4-0.1 0.2-0.1 0.3-0.3 0.4-0.5 0-0.1 0-0.1 0-0.2 0-0.1 0.1-0.2 0.1-0.3 0-0.1-0.1-0.1-0.1-0.2 0-0.1 0-0.2 0-0.3 0-0.2 0-0.4-0.1-0.5 -0.4-0.7-1.2-0.9-2-0.8 -0.2 0-0.3 0.1-0.4 0.2 -0.2 0.1-0.1 0.2-0.3 0.2 -0.1 0-0.2 0.1-0.2 0.2 0 0.1 0 0.1 0 0.2 0 00000M23.5-18.1c0 0.1 0 0.10 0.2 -0.1 0.1-0.1 0.1-0.2 0.1 0 0.1-0.1 0.3-0.1 0.4 -0.2 0.10 0.20 0.4 0 0.10 0.10 0.2 0 0.1 0 0.3 0.1 0.4 0.1 0.2 0.3 0.4 0.4 0.5 0.2 0.1 0.4 0.6 0.6 0.6 0.2 0 0.4-0.1 0.5-0.1 0.20 0.4 0 0.6-0.1 0.2-0.1 0.1-0.3 0.3-0.4 0.1-0.1 0.30 0.4-0.1 0.2-0.1 0.3-0.3 0.4-0.5 0-0.1 0-0.1 0-0.2 0-0.1 0.1-0.2 0.1-0.3 0-0.1-0.1-0.1-0.1-0.2 0-0.1 0-0.2 0-0.3 0-0.2 0-0.4-0.1-0.5 -0.4-0.7-1.2-0.9-2-0.8 -0.2 0-0.3 0.1-0.4 0.2 -0.2 0.1-0.1 0.2-0.3 0.2 -0.1 0-0.2 0.1-0.2 0.2 0 0.1 0 0.1 0 0.2 0 00000M15.8-18.1c0 0.1 0 0.10 0.2 -0.1 0.1-0.1 0.1-0.2 0.1 0 0.1-0.1 0.3-0.1 0.4 -0.2 0.10 0.20 0.4 0 0.10 0.10 0.2 0 0.1 0 0.3 0.1 0.4 0.1 0.2 0.3 0.4 0.4 0.5 0.2 0.1 0.4 0.6 0.6 0.6 0.2 0 0.4-0.1 0.5-0.1 0.20 0.4 0 0.6-0.1 0.2-0.1 0.1-0.3 0.3-0.4 0.1-0.1 0.30 0.4-0.1 0.2-0.1 0.3-0.3 0.4-0.5 0-0.1 0-0.1 0-0.2 0-0.1 0.1-0.2 0.1-0.3 0-0.1-0.1-0.1-0.1-0.2 0-0.1 0-0.2 0-0.3 0-0.2 0-0.4-0.1-0.5 -0.4-0.7-1.2-0.9-2-0.8 -0.2 0-0.3 0.1-0.4 0.2 -0.2 0.1-0.1 0.2-0.3 0.2 -0.1 0-0.2 0.1-0.2 0.2 0 0.1 0 0.1 0 0.2 0 00000M8.2-18.1c0 0.1 0 0.10 0.2 -0.1 0.1-0.1 0.1-0.2 0.1 0 0.1-0.1 0.3-0.1 0.4 -0.2 0.10 0.20 0.4 0 0.10 0.10 0.2 0 0.1 0 0.3 0.1 0.4 0.1 0.2 0.3 0.4 0.4 0.5 0.2 0.1 0.4 0.6 0.6 0.6 0.2 0 0.4-0.1 0.5-0.1 0.20 0.4 0 0.6-0.1 0.2-0.1 0.1-0.3 0.3-0.4 0.1-0.1 0.30 0.4-0.1 0.2-0.1 0.3-0.3 0.4-0.5 0-0.1 0-0.1 0-0.2 0-0.1 0.1-0.2 0.1-0.3 0-0.1-0.1-0.1-0.1-0.2 0-0.1 0-0.2 0-0.3 0-0.2 0-0.4-0.1-0.5 -0.4-0.7-1.2-0.9-2-0.8 -0.2 0-0.3 0.1-0.4 0.2 -0.2 0.1-0.1 0.2-0.3 0.2 -0.1 0-0.2 0.1-0.2 0.2 0 0.1 0 0.1 0 0.2 0 00000M0.5-18.1c0 0.1 0 0.10 0.2 -0.1 0.1-0.1 0.1-0.2 0.1 0 0.1-0.1 0.3-0.1 0.4 -0.2 0.10 0.20 0.4 0 0.10 0.10 0.2 0 0.1 0 0.3 0.1 0.4 0.1 0.2 0.3 0.4 0.4 0.5 0.2 0.1 0.4 0.6 0.6 0.6 0.2 0 0.4-0.1 0.5-0.1 0.20 0.4 0 0.6-0.1 0.2-0.1 0.1-0.3 0.3-0.4 0.1-0.1 0.30 0.4-0.1 0.2-0.1 0.3-0.3 0.4-0.5 0-0.1 0-0.1 0-0.2 0-0.1 0.1-0.2 0.1-0.3 0-0.1-0.1-0.1-0.1-0.2 0-0.1 0-0.2 0-0.3 0-0.2 0-0.4-0.1-0.5 -0.4-0.7-1.2-0.9-2-0.8 -0.2 0-0.3 0.1-0.4 0.2 -0.2 0.1-0.1 0.2-0.3 0.2 -0.1 0-0.2 0.1-0.2 0.2C0.5-18.1 0.5-18.2 0.5-18.1c0 00000" class="style2"/><path d="M69.4-10.4c0 0.1 0 0.10 0.2 -0.1 0.1-0.1 0.1-0.2 0.1 0 0.1-0.1 0.3-0.1 0.4C69-9.7 69.2-9.5 69.2-9.4c0 0.10 0.10 0.2 0 0.1 0 0.3 0.1 0.4 0.1 0.2 0.3 0.4 0.4 0.5 0.2 0.1 0.4 0.6 0.6 0.6 0.2 0 0.4-0.1 0.5-0.1 0.20 0.4 0 0.6-0.1 0.2-0.1 0.1-0.3 0.3-0.4 0.1-0.1 0.30 0.4-0.1 0.2-0.1 0.3-0.3 0.4-0.5 0-0.1 0-0.1 0-0.2 0-0.1 0.1-0.2 0.1-0.3 0-0.1-0.1-0.1-0.1-0.2 0-0.1 0-0.2 0-0.3 0-0.2 0-0.4-0.1-0.5 -0.4-0.7-1.2-0.9-2-0.8 -0.2 0-0.3 0.1-0.4 0.2 -0.2 0.1-0.1 0.2-0.3 0.2 -0.1 0-0.2 0.1-0.2 0.2 0 0.1 0 0.1 0 0.2 0 00000M61.8-10.4c0 0.1 0 0.10 0.2 -0.1 0.1-0.1 0.1-0.2 0.1 0 0.1-0.1 0.3-0.1 0.4 -0.2 0.10 0.20 0.4 0 0.10 0.10 0.2 0 0.1 0 0.3 0.1 0.4 0.1 0.2 0.3 0.4 0.4 0.5 0.2 0.1 0.4 0.6 0.6 0.6 0.2 0 0.4-0.1 0.5-0.1 0.20 0.4 0 0.6-0.1 0.2-0.1 0.1-0.3 0.3-0.4 0.1-0.1 0.30 0.4-0.1 0.2-0.1 0.3-0.3 0.4-0.5 0-0.1 0-0.1 0-0.2 0-0.1 0.1-0.2 0.1-0.3 0-0.1-0.1-0.1-0.1-0.2 0-0.1 0-0.2 0-0.3 0-0.2 0-0.4-0.1-0.5 -0.4-0.7-1.2-0.9-2-0.8 -0.2 0-0.3 0.1-0.4 0.2 -0.2 0.1-0.1 0.2-0.3 0.2 -0.1 0-0.2 0.1-0.2 0.2 0 0.1 0 0.1 0 0.2 0 00000M54.1-10.4c0 0.1 0 0.10 0.2 -0.1 0.1-0.1 0.1-0.2 0.1 0 0.1-0.1 0.3-0.1 0.4 -0.2 0.10 0.20 0.4 0 0.10 0.10 0.2 0 0.1 0 0.3 0.1 0.4 0.1 0.2 0.3 0.4 0.4 0.5 0.2 0.1 0.4 0.6 0.6 0.6 0.2 0 0.4-0.1 0.5-0.1 0.20 0.4 0 0.6-0.1 0.2-0.1 0.1-0.3 0.3-0.4 0.1-0.1 0.30 0.4-0.1 0.2-0.1 0.3-0.3 0.4-0.5 0-0.1 0-0.1 0-0.2 0-0.1 0.1-0.2 0.1-0.3 0-0.1-0.1-0.1-0.1-0.2 0-0.1 0-0.2 0-0.3 0-0.2 0-0.4-0.1-0.5 -0.4-0.7-1.2-0.9-2-0.8 -0.2 0-0.3 0.1-0.4 0.2 -0.2 0.1-0.1 0.2-0.3 0.2 -0.1 0-0.2 0.1-0.2 0.2 0 0.1 0 0.1 0 0.2 0 00000M46.5-10.4c0 0.1 0 0.10 0.2 -0.1 0.1-0.1 0.1-0.2 0.1 0 0.1-0.1 0.3-0.1 0.4 -0.2 0.10 0.20 0.4 0 0.10 0.10 0.2 0 0.1 0 0.3 0.1 0.4 0.1 0.2 0.3 0.4 0.4 0.5 0.2 0.1 0.4 0.6 0.6 0.6 0.2 0 0.4-0.1 0.5-0.1 0.20 0.4 0 0.6-0.1 0.2-0.1 0.1-0.3 0.3-0.4 0.1-0.1 0.30 0.4-0.1 0.2-0.1 0.3-0.3 0.4-0.5 0-0.1 0-0.1 0-0.2 0-0.1 0.1-0.2 0.1-0.3 0-0.1-0.1-0.1-0.1-0.2 0-0.1 0-0.2 0-0.3 0-0.2 0-0.4-0.1-0.5 -0.4-0.7-1.2-0.9-2-0.8 -0.2 0-0.3 0.1-0.4 0.2 -0.2 0.1-0.1 0.2-0.3 0.2 -0.1 0-0.2 0.1-0.2 0.2 0 0.1 0 0.1 0 0.2 0 00000M38.8-10.4c0 0.1 0 0.10 0.2 -0.1 0.1-0.1 0.1-0.2 0.1 0 0.1-0.1 0.3-0.1 0.4 -0.2 0.10 0.20 0.4 0 0.10 0.10 0.2 0 0.1 0 0.3 0.1 0.4 0.1 0.2 0.3 0.4 0.4 0.5 0.2 0.1 0.4 0.6 0.6 0.6 0.2 0 0.4-0.1 0.5-0.1 0.20 0.4 0 0.6-0.1 0.2-0.1 0.1-0.3 0.3-0.4 0.1-0.1 0.30 0.4-0.1 0.2-0.1 0.3-0.3 0.4-0.5 0-0.1 0-0.1 0-0.2 0-0.1 0.1-0.2 0.1-0.3 0-0.1-0.1-0.1-0.1-0.2 0-0.1 0-0.2 0-0.3 0-0.2 0-0.4-0.1-0.5 -0.4-0.7-1.2-0.9-2-0.8 -0.2 0-0.3 0.1-0.4 0.2 -0.2 0.1-0.1 0.2-0.3 0.2 -0.1 0-0.2 0.1-0.2 0.2 0 0.1 0 0.1 0 0.2 0 00000M31.1-10.4c0 0.1 0 0.10 0.2 -0.1 0.1-0.1 0.1-0.2 0.1 0 0.1-0.1 0.3-0.1 0.4 -0.2 0.10 0.20 0.4 0 0.10 0.10 0.2 0 0.1 0 0.3 0.1 0.4 0.1 0.2 0.3 0.4 0.4 0.5 0.2 0.1 0.4 0.6 0.6 0.6 0.2 0 0.4-0.1 0.5-0.1 0.20 0.4 0 0.6-0.1 0.2-0.1 0.1-0.3 0.3-0.4 0.1-0.1 0.30 0.4-0.1 0.2-0.1 0.3-0.3 0.4-0.5 0-0.1 0-0.1 0-0.2 0-0.1 0.1-0.2 0.1-0.3 0-0.1-0.1-0.1-0.1-0.2 0-0.1 0-0.2 0-0.3 0-0.2 0-0.4-0.1-0.5 -0.4-0.7-1.2-0.9-2-0.8 -0.2 0-0.3 0.1-0.4 0.2 -0.2 0.1-0.1 0.2-0.3 0.2 -0.1 0-0.2 0.1-0.2 0.2 0 0.1 0 0.1 0 0.2 0 00000M23.5-10.4c0 0.1 0 0.10 0.2 -0.1 0.1-0.1 0.1-0.2 0.1 0 0.1-0.1 0.3-0.1 0.4 -0.2 0.10 0.20 0.4 0 0.10 0.10 0.2 0 0.1 0 0.3 0.1 0.4 0.1 0.2 0.3 0.4 0.4 0.5 0.2 0.1 0.4 0.6 0.6 0.6 0.2 0 0.4-0.1 0.5-0.1 0.20 0.4 0 0.6-0.1 0.2-0.1 0.1-0.3 0.3-0.4 0.1-0.1 0.30 0.4-0.1 0.2-0.1 0.3-0.3 0.4-0.5 0-0.1 0-0.1 0-0.2 0-0.1 0.1-0.2 0.1-0.3 0-0.1-0.1-0.1-0.1-0.2 0-0.1 0-0.2 0-0.3 0-0.2 0-0.4-0.1-0.5 -0.4-0.7-1.2-0.9-2-0.8 -0.2 0-0.3 0.1-0.4 0.2 -0.2 0.1-0.1 0.2-0.3 0.2 -0.1 0-0.2 0.1-0.2 0.2 0 0.1 0 0.1 0 0.2 0 00000M15.8-10.4c0 0.1 0 0.10 0.2 -0.1 0.1-0.1 0.1-0.2 0.1 0 0.1-0.1 0.3-0.1 0.4 -0.2 0.10 0.20 0.4 0 0.10 0.10 0.2 0 0.1 0 0.3 0.1 0.4 0.1 0.2 0.3 0.4 0.4 0.5 0.2 0.1 0.4 0.6 0.6 0.6 0.2 0 0.4-0.1 0.5-0.1 0.20 0.4 0 0.6-0.1C17.9-8 17.8-8.2 18-8.3c0.1-0.1 0.30 0.4-0.1 0.2-0.1 0.3-0.3 0.4-0.5 0-0.1 0-0.1 0-0.2 0-0.1 0.1-0.2 0.1-0.3 0-0.1-0.1-0.1-0.1-0.2 0-0.1 0-0.2 0-0.3 0-0.2 0-0.4-0.1-0.5 -0.4-0.7-1.2-0.9-2-0.8 -0.2 0-0.3 0.1-0.4 0.2 -0.2 0.1-0.1 0.2-0.3 0.2 -0.1 0-0.2 0.1-0.2 0.2 0 0.1 0 0.1 0 0.2 0 00000M8.2-10.4c0 0.1 0 0.10 0.2 -0.1 0.1-0.1 0.1-0.2 0.1C7.9-10 7.9-9.8 7.9-9.7 7.7-9.7 7.9-9.5 7.9-9.4 7.9-9.4 7.8-9.3 7.8-9.2c0 0.1 0 0.3 0.1 0.4 0.1 0.2 0.3 0.4 0.4 0.5 0.2 0.1 0.4 0.6 0.6 0.6C9.1-7.7 9.3-7.8 9.5-7.8c0.20 0.4 0 0.6-0.1 0.2-0.1 0.1-0.3 0.3-0.4 0.1-0.1 0.30 0.4-0.1 0.2-0.1 0.3-0.3 0.4-0.5 0-0.1 0-0.1 0-0.2 0-0.1 0.1-0.2 0.1-0.3 0-0.1-0.1-0.1-0.1-0.2 0-0.1 0-0.2 0-0.3 0-0.2 0-0.4-0.1-0.5 -0.4-0.7-1.2-0.9-2-0.8 -0.2 0-0.3 0.1-0.4 0.2 -0.2 0.1-0.1 0.2-0.3 0.2 -0.1 0-0.2 0.1-0.2 0.2 0 0.1 0 0.1 0 0.2 0 00000M0.5-10.4c0 0.1 0 0.10 0.2 -0.1 0.1-0.1 0.1-0.2 0.1C0.3-10 0.2-9.8 0.2-9.7 0.1-9.7 0.2-9.5 0.2-9.4c0 0.10 0.10 0.2 0 0.1 0 0.3 0.1 0.4C0.3-8.7 0.5-8.5 0.7-8.3c0.2 0.1 0.4 0.6 0.6 0.6C1.5-7.7 1.7-7.8 1.8-7.8 2-7.9 2.2-7.8 2.4-7.9c0.2-0.1 0.1-0.3 0.3-0.4 0.1-0.1 0.30 0.4-0.1 0.2-0.1 0.3-0.3 0.4-0.5C3.5-8.9 3.5-9 3.5-9.1c0-0.1 0.1-0.2 0.1-0.3 0-0.1-0.1-0.1-0.1-0.2 0-0.1 0-0.2 0-0.3 0-0.2 0-0.4-0.1-0.5 -0.4-0.7-1.2-0.9-2-0.8 -0.2 0-0.3 0.1-0.4 0.2 -0.2 0.1-0.1 0.2-0.3 0.2 -0.1 0-0.2 0.1-0.2 0.2 0 0.1 0 0.1 0 0.2 0 00000" class="style2"/><path d="M69.4-2.8c0 0.1 0 0.10 0.2C69.4-2.5 69.3-2.5 69.2-2.5c-0.1 0.1-0.1 0.3-0.1 0.4C69-2 69.2-1.9 69.2-1.7c0 0.10 0.10 0.2 0 0.1 0 0.3 0.1 0.4 0.1 0.2 0.3 0.4 0.4 0.5 0.2 0.1 0.4 0.6 0.6 0.6C70.4 0 70.6-0.1 70.8-0.2c0.20 0.4 0 0.6-0.1 0.2-0.1 0.1-0.3 0.3-0.4 0.1-0.1 0.30 0.4-0.1 0.2-0.1 0.3-0.3 0.4-0.5 0-0.1 0-0.1 0-0.2 0-0.1 0.1-0.2 0.1-0.3 0-0.1-0.1-0.1-0.1-0.2 0-0.1 0-0.2 0-0.3 0-0.2 0-0.4-0.1-0.5 -0.4-0.7-1.2-0.9-2-0.8 -0.2 0-0.3 0.1-0.4 0.2 -0.2 0.1-0.1 0.2-0.3 0.2 -0.1 0-0.2 0.1-0.2 0.2 0 0.1 0 0.1 0 0.2 0 00000M61.8-2.8c0 0.1 0 0.10 0.2C61.7-2.5 61.6-2.5 61.6-2.5c0 0.1-0.1 0.3-0.1 0.4 -0.2 0.10 0.20 0.4 0 0.10 0.10 0.2 0 0.1 0 0.3 0.1 0.4 0.1 0.2 0.3 0.4 0.4 0.5 0.2 0.1 0.4 0.6 0.6 0.6C62.7 0 62.9-0.1 63.1-0.2c0.20 0.4 0 0.6-0.1 0.2-0.1 0.1-0.3 0.3-0.4 0.1-0.1 0.30 0.4-0.1 0.2-0.1 0.3-0.3 0.4-0.5 0-0.1 0-0.1 0-0.2 0-0.1 0.1-0.2 0.1-0.3 0-0.1-0.1-0.1-0.1-0.2 0-0.1 0-0.2 0-0.3 0-0.2 0-0.4-0.1-0.5 -0.4-0.7-1.2-0.9-2-0.8 -0.2 0-0.3 0.1-0.4 0.2 -0.2 0.1-0.1 0.2-0.3 0.2C61.9-3.1 61.8-3 61.8-2.9c0 0.1 0 0.1 0 0.2 0 00000M54.1-2.8c0 0.1 0 0.10 0.2C54-2.5 54-2.5 53.9-2.5c0 0.1-0.1 0.3-0.1 0.4 -0.2 0.10 0.20 0.4 0 0.10 0.10 0.2 0 0.1 0 0.3 0.1 0.4 0.1 0.2 0.3 0.4 0.4 0.5 0.2 0.1 0.4 0.6 0.6 0.6C55.1 0 55.3-0.1 55.4-0.2c0.20 0.4 0 0.6-0.1 0.2-0.1 0.1-0.3 0.3-0.4 0.1-0.1 0.30 0.4-0.1 0.2-0.1 0.3-0.3 0.4-0.5 0-0.1 0-0.1 0-0.2 0-0.1 0.1-0.2 0.1-0.3 0-0.1-0.1-0.1-0.1-0.2 0-0.1 0-0.2 0-0.3 0-0.2 0-0.4-0.1-0.5 -0.4-0.7-1.2-0.9-2-0.8 -0.2 0-0.3 0.1-0.4 0.2 -0.2 0.1-0.1 0.2-0.3 0.2C54.3-3.1 54.1-3 54.1-2.9c0 0.1 0 0.1 0 0.2 0 00000M46.5-2.8c0 0.1 0 0.10 0.2 -0.1 0.1-0.1 0.1-0.2 0.1 0 0.1-0.1 0.3-0.1 0.4 -0.2 0.10 0.20 0.4 0 0.10 0.10 0.2 0 0.1 0 0.3 0.1 0.4 0.1 0.2 0.3 0.4 0.4 0.5 0.2 0.1 0.4 0.6 0.6 0.6C47.4 0 47.6-0.1 47.8-0.2c0.20 0.4 0 0.6-0.1 0.2-0.1 0.1-0.3 0.3-0.4 0.1-0.1 0.30 0.4-0.1 0.2-0.1 0.3-0.3 0.4-0.5 0-0.1 0-0.1 0-0.2 0-0.1 0.1-0.2 0.1-0.3 0-0.1-0.1-0.1-0.1-0.2 0-0.1 0-0.2 0-0.3 0-0.2 0-0.4-0.1-0.5 -0.4-0.7-1.2-0.9-2-0.8 -0.2 0-0.3 0.1-0.4 0.2 -0.2 0.1-0.1 0.2-0.3 0.2C46.6-3.1 46.5-3 46.5-2.9c0 0.1 0 0.1 0 0.2 0 00000M38.8-2.8c0 0.1 0 0.10 0.2 -0.1 0.1-0.1 0.1-0.2 0.1 0 0.1-0.1 0.3-0.1 0.4 -0.2 0.10 0.20 0.4 0 0.10 0.10 0.2 0 0.1 0 0.3 0.1 0.4 0.1 0.2 0.3 0.4 0.4 0.5 0.2 0.1 0.4 0.6 0.6 0.6C39.8 0 40-0.1 40.1-0.2c0.20 0.4 0 0.6-0.1 0.2-0.1 0.1-0.3 0.3-0.4 0.1-0.1 0.30 0.4-0.1 0.2-0.1 0.3-0.3 0.4-0.5 0-0.1 0-0.1 0-0.2 0-0.1 0.1-0.2 0.1-0.3 0-0.1-0.1-0.1-0.1-0.2 0-0.1 0-0.2 0-0.3 0-0.2 0-0.4-0.1-0.5 -0.4-0.7-1.2-0.9-2-0.8 -0.2 0-0.3 0.1-0.4 0.2 -0.2 0.1-0.1 0.2-0.3 0.2C38.9-3.1 38.8-3 38.8-2.9c0 0.1 0 0.1 0 0.2 0 00000M31.1-2.8c0 0.1 0 0.10 0.2 -0.1 0.1-0.1 0.1-0.2 0.1 0 0.1-0.1 0.3-0.1 0.4 -0.2 0.10 0.20 0.4 0 0.10 0.10 0.2 0 0.1 0 0.3 0.1 0.4 0.1 0.2 0.3 0.4 0.4 0.5 0.2 0.1 0.4 0.6 0.6 0.6C32.1 0 32.3-0.1 32.5-0.2c0.20 0.4 0 0.6-0.1 0.2-0.1 0.1-0.3 0.3-0.4 0.1-0.1 0.30 0.4-0.1 0.2-0.1 0.3-0.3 0.4-0.5 0-0.1 0-0.1 0-0.2 0-0.1 0.1-0.2 0.1-0.3 0-0.1-0.1-0.1-0.1-0.2 0-0.1 0-0.2 0-0.3 0-0.2 0-0.4-0.1-0.5 -0.4-0.7-1.2-0.9-2-0.8 -0.2 0-0.3 0.1-0.4 0.2 -0.2 0.1-0.1 0.2-0.3 0.2C31.3-3.1 31.1-3 31.1-2.9c0 0.1 0 0.1 0 0.2 0 00000M23.5-2.8c0 0.1 0 0.10 0.2 -0.1 0.1-0.1 0.1-0.2 0.1 0 0.1-0.1 0.3-0.1 0.4 -0.2 0.10 0.20 0.4 0 0.10 0.10 0.2 0 0.1 0 0.3 0.1 0.4 0.1 0.2 0.3 0.4 0.4 0.5 0.2 0.1 0.4 0.6 0.6 0.6C24.4 0 24.6-0.1 24.8-0.2c0.20 0.4 0 0.6-0.1 0.2-0.1 0.1-0.3 0.3-0.4 0.1-0.1 0.30 0.4-0.1 0.2-0.1 0.3-0.3 0.4-0.5 0-0.1 0-0.1 0-0.2 0-0.1 0.1-0.2 0.1-0.3 0-0.1-0.1-0.1-0.1-0.2 0-0.1 0-0.2 0-0.3 0-0.2 0-0.4-0.1-0.5 -0.4-0.7-1.2-0.9-2-0.8 -0.2 0-0.3 0.1-0.4 0.2 -0.2 0.1-0.1 0.2-0.3 0.2 -0.1 0-0.2 0.1-0.2 0.2 0 0.1 0 0.1 0 0.2 0 00000M15.8-2.8c0 0.1 0 0.10 0.2 -0.1 0.1-0.1 0.1-0.2 0.1 0 0.1-0.1 0.3-0.1 0.4 -0.2 0.10 0.20 0.4 0 0.10 0.10 0.2 0 0.1 0 0.3 0.1 0.4 0.1 0.2 0.3 0.4 0.4 0.5 0.2 0.1 0.4 0.6 0.6 0.6C16.8 0 17-0.1 17.1-0.2c0.20 0.4 0 0.6-0.1 0.2-0.1 0.1-0.3 0.3-0.4 0.1-0.1 0.30 0.4-0.1 0.2-0.1 0.3-0.3 0.4-0.5 0-0.1 0-0.1 0-0.2 0-0.1 0.1-0.2 0.1-0.3 0-0.1-0.1-0.1-0.1-0.2 0-0.1 0-0.2 0-0.3 0-0.2 0-0.4-0.1-0.5 -0.4-0.7-1.2-0.9-2-0.8 -0.2 0-0.3 0.1-0.4 0.2 -0.2 0.1-0.1 0.2-0.3 0.2 -0.1 0-0.2 0.1-0.2 0.2 0 0.1 0 0.1 0 0.2C15.8-2.7 15.8-2.8 15.8-2.8M8.2-2.8c0 0.1 0 0.10 0.2C8.1-2.5 8-2.5 8-2.5c0 0.1-0.1 0.3-0.1 0.4 -0.2 0.10 0.20 0.4C7.9-1.7 7.8-1.6 7.8-1.6c0 0.1 0 0.3 0.1 0.4 0.1 0.2 0.3 0.4 0.4 0.5 0.2 0.1 0.4 0.6 0.6 0.6C9.1 0 9.3-0.1 9.5-0.2c0.20 0.4 0 0.6-0.1 0.2-0.1 0.1-0.3 0.3-0.4 0.1-0.1 0.30 0.4-0.1 0.2-0.1 0.3-0.3 0.4-0.5 0-0.1 0-0.1 0-0.2 0-0.1 0.1-0.2 0.1-0.3 0-0.1-0.1-0.1-0.1-0.2 0-0.1 0-0.2 0-0.3 0-0.2 0-0.4-0.1-0.5 -0.4-0.7-1.2-0.9-2-0.8C9-3.5 8.8-3.4 8.7-3.4c-0.2 0.1-0.1 0.2-0.3 0.2C8.3-3.1 8.2-3 8.2-2.9 8.2-2.8 8.2-2.9 8.2-2.8 8.2-2.7 8.1-2.8 8.1-2.8M0.5-2.8c0 0.1 0 0.10 0.2C0.4-2.5 0.4-2.5 0.3-2.5 0.3-2.4 0.2-2.2 0.2-2.1 0.1-2 0.2-1.9 0.2-1.7c0 0.10 0.10 0.2 0 0.1 0 0.3 0.1 0.4C0.3-1 0.5-0.8 0.7-0.7c0.2 0.1 0.4 0.6 0.6 0.6C1.5 0 1.7-0.1 1.8-0.2 2-0.2 2.2-0.2 2.4-0.2c0.2-0.1 0.1-0.3 0.3-0.4 0.1-0.1 0.30 0.4-0.1 0.2-0.1 0.3-0.3 0.4-0.5C3.5-1.3 3.5-1.3 3.5-1.4c0-0.1 0.1-0.2 0.1-0.3 0-0.1-0.1-0.1-0.1-0.2 0-0.1 0-0.2 0-0.3 0-0.2 0-0.4-0.1-0.5 -0.4-0.7-1.2-0.9-2-0.8C1.3-3.5 1.2-3.4 1-3.4c-0.2 0.1-0.1 0.2-0.3 0.2C0.6-3.1 0.5-3 0.5-2.9 0.5-2.8 0.5-2.9 0.5-2.8 0.5-2.7 0.5-2.8 0.5-2.8" class="style2"/></pattern><path d="M14 21.5c0.6 0 2.9-0.4 2.9 0.7s-2.6 1.3-3.2 1.4c-6.6 1.3-10.9 4.2-12.1 4.2C0.2 27.8 0 24.8 0 24c0-3.4 1.2-6.9 3.7-9.2 3.9-3.6 25.5-14.6 30.7-14.8 2.6-0.1 4.8 4.6 4.8 5.6 0 1.4-1.9 4.2-2.7 5.5C23.5 31.6 21.1 38 21 40.1c-0.1 1.7 0.3 4.7 1.9 4.2 1.9-0.6 5.3-2.4 20.4-26.3 -0.8-4.5 5.9-13.2 8.1-12.4 3.2 1.1 1.7 10-16.6 34.1 -2.3 3-9 12.5-12.9 12.5 -2.9 0-8.3-4.5-8.1-9.9 0.1-2.9 1.2-9.1 14.9-31.7l-0.1-0.1c-6.5 3.1-13.1 6.3-18.6 11.1l0.1 0.1L14 21.5zM83.5 25.1c7.3 1.7 10.7 5.5 10.7 9.1 0 14.3-25.1 16.6-35.5 16.6 -2.8 0-11.6 0-11.6-4.2 0-1.5 2.5-5.3 3.7-6.4 0.9-0.7 5.1-2.1 6.2-2.1 0.4 0 0.6 0.1 0.6 0.5 0 0.7-0.7 1.1-1.2 1.4 -0.4 0.3-0.8 0.6-1.2 1.1v0.1c25.7 0.9 32.8-6.5 32.8-7.6 0-3.7-19.9-6.6-23.4-7.1 -3.6-0.6-7.3-1.7-7.3-6 0-2.4 1.2-7.6 2.3-9.6C61.6 7.2 74.7 0.4 90.4 0.4c3 0 6 0.4 9.1 1 1.7 0.4 1.9 0.9 1.9 2.4 0 5.3-1.8 6.6-6 8.2 -3.1 1.2-3.7 1.5-6.5 3.5 -0.5 0.3-1.2 0.7-1.8 0.7 -0.7 0-1.2-0.4-1.2-1.1 0-0.1 1.4-2.4 5.3-5l-0.1-0.1c-18.6 0.6-26.6 7.3-26.6 9C64.4 19.9 63.4 20.5 83.5 25.1z"/></svg>